<?xml version="1.0" encoding="UTF-8" standalone="no"?>
<svg
   xmlns:dc="http://purl.org/dc/elements/1.1/"
   xmlns:cc="http://creativecommons.org/ns#"
   xmlns:rdf="http://www.w3.org/1999/02/22-rdf-syntax-ns#"
   xmlns:svg="http://www.w3.org/2000/svg"
   xmlns="http://www.w3.org/2000/svg"
   viewBox="0 0 883.69336 483.14667"
   height="483.14667"
   width="883.69336"
   xml:space="preserve"
   id="svg2"
   version="1.1"><metadata
     id="metadata8"><rdf:RDF><cc:Work
         rdf:about=""><dc:format>image/svg+xml</dc:format><dc:type
           rdf:resource="http://purl.org/dc/dcmitype/StillImage" /></cc:Work></rdf:RDF></metadata><defs
     id="defs6" /><g
     transform="matrix(1.3333333,0,0,-1.3333333,0,483.14667)"
     id="g10"><g
       transform="scale(0.1)"
       id="g12"><path
         id="path14"
         style="fill:hsl(252, 75%, 60%);fill-opacity:1;fill-rule:nonzero;stroke:none"
         d="m 6450.75,1924.89 c -191.88,346.76 -471.79,641.59 -808.89,864.96 C 5090.52,3155.15 4044.6,3745.88 3265,3572.04 2157.17,3325.02 -338.141,1770.84 38.3047,1101.82 414.754,432.801 1257.94,7.76172 1257.94,7.76172 h 4471.09 c 224.88,3.03908 708.9,178.86728 891.73,1279.32828 32.4,195.06 -53.61,427.48 -170.01,637.8" /><path
         id="path16"
         style="fill:#ccedd5;fill-opacity:1;fill-rule:nonzero;stroke:none"
         d="M 5729.03,7.76172 H 1257.94 c 0,0 -843.186,425.03928 -1219.6353,1094.05828 -26.0078,46.22 -38.30860625,96.67 -38.3047,150.62 0.0078125,106.38 47.875,226.42 132.781,354.48 51.598,-59.02 133.832,-77.57 232.481,-77.57 166.558,0.01 379.941,52.86 571.593,52.86 205.595,0 428.845,-74.69 595.185,-74.69 152.01,0 256.49,62.37 256.5,301.11 0.01,74.88 -10.26,167.11 -32.56,280.2 -44.59,226.08 -173.92,456.57 -372.84,599.85 212.59,136.54 434.31,266 653.43,382.37 -88.39,-118.85 -153.22,-269.68 -198.66,-445.96 -29.81,-115.64 -43.38,-208.48 -43.41,-282.64 -0.07,-221.95 121.09,-276.85 290.93,-276.84 166.56,0.01 379.94,52.85 571.6,52.85 205.59,0 428.85,-74.68 595.19,-74.68 152,0 256.49,62.37 256.5,301.1 0,74.88 -10.26,167.11 -32.57,280.21 -31.78,161.12 -106.63,324.53 -219.02,456.96 h 168.88 c 2.24,0 4.23,1.52 4.82,3.69 0.07,0.28 5.79,21.26 5.8,49.53 -0.01,18.83 -2.55,40.94 -11.2,62.28 -8.64,21.33 -23.52,41.9 -47.81,57.06 -25.83,16.17 -46.37,21.63 -64.86,21.63 -0.04,0 -0.08,0 -0.13,0 -15.98,-0.01 -30.13,-3.93 -44.88,-7.65 -14.76,-3.73 -30.17,-7.34 -49.16,-7.34 -10.28,0 -21.63,1.06 -34.5,3.78 -8.49,12.86 -63.75,95.33 -139.4,177.95 -16.14,17.62 -33.21,35.25 -50.95,52.22 97,32.35 188.09,58.3 271.26,76.84 96.35,21.49 196.7,31.29 299.76,31.29 730.75,0 1593.9,-493.33 2077.1,-813.48 337.1,-223.37 617.01,-518.2 808.89,-864.96 99.58,-179.92 176.92,-376.02 176.91,-551.06 -0.01,-29.57 -2.22,-58.55 -6.9,-86.74 C 6437.93,186.629 5953.91,10.8008 5729.03,7.76172 M 5773.24,1164.02 c 151.09,0 315.15,-54.88 437.39,-54.88 111.76,0 188.56,45.91 188.48,221.6 -0.03,54.97 -7.58,122.62 -23.93,205.57 -53.07,269.07 -269.5,546.66 -601.94,546.66 -125.62,0 -229.87,-30.03 -315.65,-85.54 -101.64,278.28 -344.8,528.74 -692.6,528.74 -403.35,0 -625.12,-255.15 -730.32,-663.25 -26.58,-103.1 -38.68,-185.87 -38.7,-251.99 -0.06,-197.89 107.96,-246.84 259.39,-246.83 148.5,0 338.75,47.12 509.63,47.12 124.86,0 257.02,-30.9 375.49,-50.6 -0.72,-11.29 -1.07,-22.03 -1.07,-32.32 0.08,-162.81 89.07,-203.13 213.79,-203.12 122.39,0.01 279.21,38.84 420.04,38.84 M 3422.06,3092.05 h -173.53 c -141.85,162.4 -341.34,275.84 -587.95,276.93 112.55,47.13 220.77,88.38 322.43,122.63 41.43,-39.17 79.43,-82.39 110.57,-120.89 25.37,-31.37 46.2,-59.61 60.69,-79.99 7.24,-10.2 12.89,-18.43 16.72,-24.1 3.84,-5.68 5.84,-8.76 5.85,-8.77 0.72,-1.11 1.83,-1.88 3.11,-2.16 l 1.09,4.88 4.19,2.72 -4.19,-2.72 -1.09,-4.88 c 14.36,-3.2 27.11,-4.45 38.64,-4.45 h 0.01 c 20.27,0 36.74,3.89 51.6,7.64 14.88,3.78 28.11,7.35 42.37,7.35 0.02,0 0.04,0 0.06,0 16.53,-0.03 34.85,-4.62 59.69,-20.11 22.37,-14 35.82,-32.6 43.84,-52.34 8.01,-19.72 10.47,-40.58 10.47,-58.52 0,-13.46 -1.37,-25.25 -2.75,-33.65 -0.66,-4.04 -1.32,-7.29 -1.82,-9.57" /><path
         id="path18"
         style="fill:#17282f;fill-opacity:1;fill-rule:nonzero;stroke:none"
         d="m 588.598,373.359 c -14.832,-4.379 -49.157,0.692 -49.18,0.7 -0.355,0.05 10.215,21.613 11.035,22.89 9.531,14.852 36.664,37.942 55.774,32.891 13.757,-3.649 19.789,-18.629 14.98,-31.41 -4.914,-13.059 -19.973,-21.328 -32.609,-25.071" /><path
         id="path20"
         style="fill:#17282f;fill-opacity:1;fill-rule:nonzero;stroke:none"
         d="m 268.223,387.73 c -0.328,-0.16 -3.399,23.649 -3.418,25.168 -0.242,17.653 9.648,51.883 28.371,58.204 13.484,4.546 26.781,-4.614 29.82,-17.93 3.109,-13.602 -4.891,-28.801 -13.367,-38.902 -9.957,-11.84 -41.383,-26.532 -41.406,-26.54" /><path
         id="path22"
         style="fill:#17282f;fill-opacity:1;fill-rule:nonzero;stroke:none"
         d="m 194.781,451.402 c 10.352,-5.8 34.805,-8.312 40.883,-8.863 3.024,-4.148 6.211,-8.617 9.625,-13.637 5.934,-8.882 12.547,-18.953 19.008,-30.382 1.723,-3.051 3.457,-6.391 5.199,-9.598 -4.055,4.797 -9.711,11.308 -10.332,11.879 -11.394,10.508 -39.601,24.129 -54.723,15.59 -10.89,-6.153 -12.695,-20.231 -5.769,-30.032 7.074,-10.019 21.719,-13.699 33.293,-14.078 12.078,-0.383 35.469,8.949 40.562,11.051 3.746,-7.172 7.422,-14.621 10.809,-22.613 5.867,-13.778 11.398,-28.778 15.027,-44.739 l -0.914,-0.39 c -3.195,4.879 -10.16,14.992 -10.828,15.762 -10.172,11.699 -36.711,28.328 -52.68,21.488 -11.5,-4.91 -14.839,-18.711 -9.035,-29.211 5.934,-10.731 20.082,-16 31.547,-17.649 13.215,-1.89 41.43,6.489 42.492,6.809 3.207,-14.937 5.371,-30.508 6.68,-46.457 0.961,-11.562 1.461,-23.301 1.852,-35.102 -2.161,3.5 -11.286,16.77 -12.051,17.661 -10.172,11.699 -36.715,28.328 -52.684,21.5 -11.504,-4.922 -14.836,-18.719 -9.031,-29.219 5.934,-10.731 20.078,-16 31.543,-17.641 12.898,-1.859 39.973,6.051 42.25,6.731 0.176,-5.364 0.371,-10.703 0.504,-16.071 0.437,-17.519 0.801,-35.089 1.695,-52.41 0.309,-6.011 0.828,-11.91 1.328,-17.82 -3.394,5.121 -9.754,14.34 -10.386,15.07 -10.176,11.699 -36.715,28.328 -52.68,21.508 -11.504,-4.918 -14.844,-18.719 -9.035,-29.219 5.933,-10.73 20.086,-16.011 31.543,-17.648 11.519,-1.652 34.425,4.508 40.851,6.34 0.903,-9.84 2.016,-19.582 3.571,-29.121 0.753,-4.09 1.265,-8.332 2.218,-12.2191 0.875,-3.9414 1.746,-7.8399 2.598,-11.711 2.059,-7.9296 3.941,-15.3125 6.047,-22.6406 1.039,-3.7109 2.101,-7.1914 3.16,-10.7812 -2.664,5.7109 -7.027,14.6797 -7.516,15.4726 -8.289,13.0977 -32.004,33.5583 -48.82,29.2188 -12.113,-3.1094 -17.504,-16.25 -13.352,-27.5117 4.239,-11.5 17.426,-18.8594 28.504,-22.2188 12.223,-3.6992 39.274,-0.2109 42.579,0.2305 2.628,-8.7813 5.261,-17.3086 7.882,-25.25 2.118,-6.4883 4.188,-12.5508 6.219,-18.39066 h 11.422 c -2.551,6.76956 -5.195,13.99216 -7.906,21.69926 -2.52,7.1211 -5.071,14.7109 -7.61,22.5429 3.043,1.2071 26.575,10.8086 36.129,19.7578 9.766,-6.4179 20.914,-11.8906 22.883,-12.8398 -2.656,-8.7812 -5.168,-17.3477 -7.363,-25.4102 -2.52,-9.1601 -4.735,-17.7382 -6.727,-25.74996 h 11.16 c 1.657,7.28126 3.453,14.92186 5.524,23.12896 1.82,7.3398 3.879,15.0703 6.07,23 3.332,-0.6875 30.016,-6.0274 42.449,-3.1875 11.293,2.5781 24.957,9 29.985,20.1796 4.925,10.9493 0.461,24.418 -11.407,28.3711 -16.48,5.488 -41.558,-13.2734 -50.73,-25.7734 -0.594,-0.7969 -6.473,-11.0273 -9.355,-16.3281 1.339,4.789 2.66,9.5508 4.136,14.5195 2.078,7.1406 4.508,14.6289 6.821,21.8984 1.332,3.7305 2.683,7.4922 4.046,11.3006 1.293,3.871 2.997,7.383 4.497,11.153 2.32,5.468 4.984,10.988 7.632,16.5 7.153,-2.551 28.278,-9.68 39.461,-8.86 11.555,0.84 26.035,5.117 32.703,15.41 6.524,10.067 4.149,24.059 -6.984,29.77 -15.453,7.918 -43.086,-6.82 -54.047,-17.793 -0.355,-0.348 -2.433,-2.91 -4.867,-5.969 2.754,5.309 5.477,10.621 8.441,15.891 8.407,14.988 17.442,30 26.43,45.078 1.875,3.141 3.695,6.312 5.559,9.453 6.007,-2.172 28.82,-10.094 40.547,-9.242 11.55,0.84 26.035,5.109 32.695,15.41 6.527,10.07 4.152,24.059 -6.981,29.77 -15.453,7.921 -43.086,-6.821 -54.05,-17.778 -0.391,-0.39 -2.864,-3.461 -5.602,-6.91 4.766,8.27 9.418,16.559 13.77,24.938 7.636,14.621 14.367,29.46 19.746,44.332 2.109,-0.793 28.672,-10.614 41.703,-9.672 11.551,0.84 26.031,5.121 32.695,15.41 6.524,10.082 4.156,24.082 -6.98,29.781 -15.45,7.918 -43.082,-6.832 -54.047,-17.781 -0.778,-0.789 -9.641,-11.918 -12.676,-16 l 0.215,0.531 c 5.5,15.668 8.82,31.309 11.25,46.301 2.445,14.937 3.476,29.219 4.082,42.387 0.637,13.171 0.414,25.261 0.125,35.961 -0.199,5.781 -0.488,11.07 -0.813,16.011 l 0.289,-0.23 c 0.25,-0.199 7.52,19.609 7.836,20.898 3.649,15.082 1.836,46.34 -12.972,55.41 -10.672,6.532 -23.852,1.262 -29.051,-9.558 -5.313,-11.039 -1.422,-25.629 3.875,-35.93 5.437,-10.551 24.445,-26.141 29.211,-29.941 0.226,-5.141 0.426,-10.629 0.504,-16.692 0.051,-10.679 0.011,-22.726 -0.91,-35.828 -0.235,-3.488 -0.633,-7.238 -0.954,-10.871 -0.738,6.242 -1.859,14.793 -2.062,15.602 -3.707,15.058 -19.723,41.968 -37.043,43.199 -12.48,0.871 -21.746,-9.879 -21.383,-21.871 0.375,-12.258 10.555,-23.41 20.008,-30.11 9.855,-6.988 34.52,-12.097 39.926,-13.16 -0.832,-8.039 -1.871,-16.289 -3.457,-24.82 -2.711,-14.727 -6.379,-30.297 -12.153,-45.617 l -0.972,0.179 c 0.023,5.829 -0.207,18.118 -0.344,19.129 -2.031,15.371 -14.988,43.879 -32.074,46.989 -12.309,2.242 -22.703,-7.411 -23.653,-19.387 -0.972,-12.211 7.918,-24.422 16.575,-32.121 9.976,-8.86 38.132,-17.442 39.191,-17.762 -5.555,-14.23 -12.348,-28.41 -20.059,-42.43 -5.57,-10.179 -11.632,-20.25 -17.812,-30.289 0.129,4.102 -0.16,20.2 -0.313,21.36 -2.035,15.371 -14.996,43.879 -32.078,47 -12.308,2.242 -22.703,-7.43 -23.652,-19.391 -0.973,-12.219 7.918,-24.418 16.574,-32.117 9.738,-8.652 36.684,-16.992 38.957,-17.684 -2.812,-4.558 -5.594,-9.129 -8.445,-13.687 -9.301,-14.852 -18.688,-29.699 -27.5,-44.641 -3.059,-5.18 -5.875,-10.39 -8.727,-15.609 0,6.148 -0.214,17.347 -0.347,18.308 -2.028,15.371 -14.989,43.883 -32.075,46.993 -12.308,2.25 -22.703,-7.422 -23.652,-19.383 -0.973,-12.219 7.918,-24.43 16.574,-32.117 8.696,-7.743 31.2,-15.231 37.567,-17.25 -4.672,-8.711 -9.117,-17.442 -13.086,-26.262 -1.625,-3.82 -3.535,-7.629 -4.891,-11.41 -1.441,-3.77 -2.875,-7.5003 -4.289,-11.1917 -2.66,-7.7578 -5.156,-14.957 -7.445,-22.2266 -1.188,-3.6719 -2.219,-7.1601 -3.32,-10.7422 0.929,6.2422 2.246,16.1289 2.261,17.0508 0.324,15.5117 -8.172,45.6407 -24.582,51.3087 -11.828,4.09 -23.57,-3.887 -26.324,-15.578 -0.348,-1.481 -0.543,-2.992 -0.609,-4.512 -8.114,-11.207 -12.965,-27.6601 -13.469,-37.9374 -0.047,-1 0.695,-12.7813 1.207,-18.793 -1.524,4.7422 -3.047,9.4336 -4.547,14.3828 -2.215,7.1094 -4.32,14.6992 -6.41,22.0469 -0.938,3.832 -1.891,7.7226 -2.852,11.6527 -1.05,3.929 -1.57,7.808 -2.398,11.781 -1.078,5.828 -1.902,11.91 -2.738,17.969 7.378,1.82 28.925,7.531 37.808,14.379 9.168,7.07 18.887,18.628 18.77,30.89 -0.114,12 -9.813,22.371 -22.246,20.981 -17.262,-1.911 -32.172,-29.45 -35.27,-44.649 -0.101,-0.492 -0.422,-3.773 -0.766,-7.66 -0.628,5.938 -1.285,11.867 -1.722,17.91 -1.262,17.137 -2.004,34.637 -2.824,52.18 -0.172,3.648 -0.395,7.289 -0.582,10.937 6.214,1.512 29.617,7.481 38.921,14.661 9.168,7.07 18.887,18.628 18.77,30.89 -0.117,12 -9.813,22.36 -22.246,20.988 -17.262,-1.929 -32.172,-29.468 -35.27,-44.656 -0.109,-0.543 -0.488,-4.461 -0.867,-8.844 -0.582,9.512 -1.281,19 -2.262,28.391 -1.707,16.41 -4.277,32.5 -8,47.871 2.2,0.512 29.778,6.961 40.122,14.942 9.167,7.07 18.89,18.628 18.765,30.89 -0.113,11.996 -9.812,22.36 -22.242,20.988 -17.262,-1.921 -32.176,-29.468 -35.27,-44.66 -0.218,-1.078 -1.468,-15.261 -1.75,-20.332 l -0.113,0.551 c -4.055,16.121 -9.914,30.992 -16.156,44.832 -6.211,13.82 -13.231,26.301 -19.984,37.609 -6.735,11.34 -13.59,21.301 -19.727,30.059 -3.359,4.723 -6.523,8.981 -9.516,12.91 l 0.368,-0.039 c 0.32,-0.019 -4.543,20.512 -4.997,21.77 -5.273,14.582 -24.031,39.66 -41.382,39.05 -12.504,-0.441 -20.594,-12.109 -18.965,-23.988 1.664,-12.152 12.961,-22.172 23.062,-27.84" /><path
         id="path24"
         style="fill:#17282f;fill-opacity:1;fill-rule:nonzero;stroke:none"
         d="m 6199.4,216.359 c -8.52,-2.519 -28.21,0.391 -28.22,0.403 l 6.33,13.117 c 5.47,8.519 21.04,21.769 31.99,18.871 7.89,-2.09 11.36,-10.68 8.6,-18.02 -2.82,-7.488 -11.46,-12.23 -18.7,-14.371" /><path
         id="path26"
         style="fill:#17282f;fill-opacity:1;fill-rule:nonzero;stroke:none"
         d="m 6015.61,224.59 -1.97,14.441 c -0.13,10.117 5.54,29.758 16.28,33.391 7.74,2.609 15.36,-2.641 17.1,-10.281 1.79,-7.801 -2.8,-16.532 -7.66,-22.309 -5.72,-6.801 -23.74,-15.23 -23.75,-15.242" /><path
         id="path28"
         style="fill:#17282f;fill-opacity:1;fill-rule:nonzero;stroke:none"
         d="m 5973.48,261.121 c 5.93,-3.332 19.96,-4.769 23.44,-5.082 1.74,-2.391 3.57,-4.937 5.53,-7.828 3.4,-5.09 7.2,-10.859 10.9,-17.43 0.99,-1.75 1.98,-3.66 2.99,-5.511 -2.34,2.761 -5.58,6.5 -5.93,6.82 -6.54,6.039 -22.72,13.851 -31.4,8.949 -6.25,-3.527 -7.28,-11.598 -3.31,-17.23 4.07,-5.739 12.46,-7.86 19.11,-8.079 6.92,-0.218 20.34,5.141 23.27,6.34 2.15,-4.109 4.25,-8.39 6.2,-12.968 3.36,-7.911 6.53,-16.512 8.61,-25.661 l -0.52,-0.242 c -1.83,2.813 -5.83,8.61 -6.21,9.051 -5.84,6.719 -21.06,16.25 -30.22,12.332 -6.6,-2.82 -8.52,-10.73 -5.19,-16.762 3.41,-6.148 11.53,-9.179 18.1,-10.121 7.59,-1.09 23.77,3.731 24.37,3.903 1.85,-8.563 3.09,-17.5 3.84,-26.653 0.55,-6.629 0.84,-13.367 1.07,-20.129 -1.24,2.012 -6.48,9.621 -6.92,10.121 -5.84,6.719 -21.06,16.25 -30.22,12.34 -6.6,-2.832 -8.52,-10.742 -5.19,-16.761 3.41,-6.149 11.52,-9.18 18.1,-10.129 7.4,-1.051 22.93,3.48 24.24,3.871 0.1,-3.071 0.21,-6.133 0.29,-9.223 0.25,-10.051 0.46,-20.129 0.97,-30.0702 0.17,-3.4375 0.47,-6.8204 0.76,-10.2188 -1.95,2.9492 -5.59,8.2305 -5.96,8.6484 -5.83,6.7106 -21.05,16.2496 -30.22,12.3316 -6.6,-2.82 -8.51,-10.73 -5.18,-16.7495 3.4,-6.1719 11.52,-9.1914 18.1,-10.1289 6.61,-0.9532 19.74,2.5898 23.43,3.6289 0.52,-5.6407 1.15,-11.2305 2.04,-16.6992 0.44,-2.3516 0.74,-4.7696 1.28,-7.0118 0.5,-2.25 1,-4.5 1.5,-6.7187 1.17,-4.5508 2.25,-8.7813 3.46,-12.9922 0.6,-2.1172 1.21,-4.1172 1.81,-6.1797 -1.52,3.2695 -4.03,8.4297 -4.31,8.8711 -4.75,7.5195 -18.36,19.2617 -28,16.7813 -6.96,-1.8008 -10.04,-9.3321 -7.67,-15.793 2.43,-6.5977 10,-10.8164 16.36,-12.75 7.01,-2.1289 22.53,-0.1289 24.42,0.1406 1.51,-5.0391 3.02,-9.9375 4.52,-14.4883 1.21,-3.7187 2.41,-7.19919 3.57,-10.55076 h 6.55 c -1.46,3.87891 -2.98,8.03126 -4.53,12.44926 -1.45,4.082 -2.91,8.4414 -4.37,12.9218 1.75,0.6993 15.25,6.1993 20.73,11.3477 5.6,-3.6875 12,-6.8281 13.12,-7.3672 -1.52,-5.043 -2.96,-9.9609 -4.22,-14.582 -1.44,-5.2578 -2.71,-10.17971 -3.86,-14.76956 h 6.4 c 0.96,4.17969 1.98,8.55076 3.18,13.26956 1.04,4.1992 2.22,8.6406 3.48,13.1914 1.91,-0.4024 17.22,-3.461 24.35,-1.832 6.47,1.4804 14.31,5.1601 17.2,11.582 2.83,6.2812 0.27,14 -6.55,16.2812 -9.45,3.1368 -23.84,-7.6211 -29.1,-14.7929 -0.33,-0.4493 -3.71,-6.3282 -5.36,-9.3672 0.76,2.75 1.52,5.4804 2.37,8.3281 1.19,4.1016 2.59,8.4023 3.91,12.5703 0.77,2.1406 1.54,4.2891 2.32,6.4688 0.74,2.2226 1.72,4.2422 2.58,6.4023 1.33,3.1289 2.86,6.3086 4.39,9.4688 4.1,-1.461 16.22,-5.5508 22.63,-5.0899 6.62,0.4805 14.93,2.9414 18.76,8.8399 3.74,5.7812 2.38,13.8086 -4,17.0781 -8.87,4.5507 -24.72,-3.8985 -31.01,-10.1992 -0.2,-0.2071 -1.39,-1.668 -2.79,-3.418 1.57,3.0391 3.13,6.0781 4.84,9.1094 4.83,8.6015 10,17.2105 15.16,25.8595 1.07,1.801 2.12,3.609 3.19,5.422 3.45,-1.25 16.54,-5.793 23.25,-5.301 6.64,0.48 14.95,2.937 18.76,8.828 3.75,5.793 2.39,13.813 -4,17.082 -8.87,4.559 -24.72,-3.902 -31.01,-10.191 -0.22,-0.231 -1.64,-1.981 -3.21,-3.969 2.74,4.738 5.4,9.508 7.9,14.309 4.39,8.39 8.24,16.902 11.33,25.429 1.21,-0.449 16.45,-6.078 23.93,-5.551 6.62,0.493 14.93,2.942 18.75,8.84 3.75,5.782 2.38,13.813 -4.01,17.094 -8.87,4.539 -24.72,-3.91 -31,-10.203 -0.44,-0.449 -5.53,-6.84 -7.27,-9.18 l 0.12,0.301 c 3.15,8.992 5.06,17.969 6.45,26.559 1.41,8.582 1.99,16.773 2.35,24.32 0.36,7.562 0.23,14.492 0.06,20.621 -0.1,3.32 -0.27,6.359 -0.45,9.191 l 0.15,-0.121 4.5,11.989 c 2.09,8.652 1.06,26.582 -7.44,31.793 -6.12,3.738 -13.68,0.718 -16.67,-5.493 -3.04,-6.339 -0.81,-14.711 2.23,-20.621 3.11,-6.047 14.02,-14.988 16.76,-17.179 0.12,-2.938 0.24,-6.09 0.28,-9.567 0.03,-6.121 0.01,-13.031 -0.52,-20.551 -0.13,-2 -0.36,-4.152 -0.54,-6.23 -0.42,3.57 -1.07,8.48 -1.19,8.949 -2.12,8.629 -11.31,24.07 -21.25,24.781 -7.15,0.5 -12.48,-5.671 -12.26,-12.55 0.21,-7.032 6.05,-13.43 11.47,-17.27 5.66,-4.012 19.81,-6.941 22.9,-7.551 -0.47,-4.621 -1.07,-9.34 -1.98,-14.23 -1.55,-8.461 -3.65,-17.399 -6.97,-26.18 l -0.56,0.102 c 0.02,3.347 -0.12,10.386 -0.19,10.98 -1.17,8.817 -8.6,25.156 -18.4,26.949 -7.06,1.289 -13.03,-4.261 -13.57,-11.109 -0.56,-7.012 4.54,-14.023 9.51,-18.434 5.72,-5.089 21.87,-10.007 22.49,-10.199 -3.2,-8.16 -7.09,-16.289 -11.52,-24.34 -3.19,-5.828 -6.67,-11.609 -10.21,-17.371 0.07,2.352 -0.1,11.594 -0.19,12.25 -1.16,8.821 -8.59,25.184 -18.4,26.961 -7.06,1.293 -13.02,-4.25 -13.57,-11.117 -0.56,-7.012 4.55,-14.012 9.51,-18.434 5.59,-4.957 21.05,-9.738 22.35,-10.136 -1.61,-2.621 -3.21,-5.242 -4.85,-7.84 -5.33,-8.531 -10.71,-17.063 -15.77,-25.6212 -1.76,-2.9688 -3.37,-5.9688 -5.01,-8.9492 0,3.5273 -0.12,9.9492 -0.2,10.5 -1.16,8.8204 -8.6,25.1684 -18.39,26.9574 -7.06,1.293 -13.03,-4.258 -13.58,-11.118 -0.56,-7.011 4.55,-14.0113 9.51,-18.4215 4.99,-4.4375 17.9,-8.75 21.56,-9.9101 -2.69,-4.9883 -5.24,-10 -7.51,-15.0586 -0.93,-2.1914 -2.03,-4.3789 -2.81,-6.5391 -0.83,-2.1719 -1.65,-4.3125 -2.46,-6.4219 -1.52,-4.4609 -2.96,-8.5781 -4.27,-12.7578 -0.68,-2.1015 -1.27,-4.1015 -1.91,-6.1601 0.54,3.5781 1.29,9.2578 1.3,9.7773 0.19,8.9024 -4.69,26.1914 -14.1,29.4414 -6.79,2.3399 -13.52,-2.2422 -15.1,-8.9414 l -0.35,-2.5898 c -4.65,-6.4297 -7.43,-15.8594 -7.73,-21.7578 -0.03,-0.5703 0.4,-7.3399 0.7,-10.7696 -0.88,2.7071 -1.75,5.3985 -2.61,8.25 -1.27,4.0664 -2.48,8.4297 -3.68,12.6289 -0.54,2.211 -1.09,4.4414 -1.63,6.6797 -0.61,2.2696 -0.9,4.5 -1.38,6.7696 -0.62,3.3515 -1.09,6.832 -1.57,10.3007 4.23,1.0508 16.59,4.3282 21.69,8.2579 5.26,4.0507 10.84,10.6914 10.77,17.7222 -0.07,6.891 -5.64,12.829 -12.76,12.028 -9.91,-1.09 -18.46,-16.887 -20.24,-25.6096 -0.06,-0.2891 -0.24,-2.1602 -0.44,-4.3985 -0.36,3.4102 -0.74,6.8086 -0.98,10.2774 -0.73,9.8317 -1.16,19.8707 -1.63,29.9337 -0.09,2.098 -0.22,4.187 -0.33,6.289 3.57,0.859 16.98,4.281 22.33,8.398 5.26,4.063 10.84,10.692 10.77,17.723 -0.07,6.879 -5.64,12.828 -12.77,12.039 -9.9,-1.101 -18.45,-16.902 -20.23,-25.609 -0.07,-0.321 -0.28,-2.563 -0.5,-5.082 -0.33,5.461 -0.73,10.902 -1.3,16.289 -0.97,9.41 -2.45,18.64 -4.59,27.461 1.26,0.289 17.08,3.992 23.02,8.57 5.26,4.051 10.84,10.691 10.77,17.719 -0.07,6.883 -5.63,12.832 -12.76,12.043 -9.9,-1.114 -18.46,-16.903 -20.24,-25.621 -0.12,-0.61 -0.84,-8.75 -1,-11.672 l -0.07,0.32 c -2.32,9.25 -5.68,17.781 -9.27,25.723 -3.55,7.929 -7.59,15.09 -11.46,21.578 -3.86,6.5 -7.8,12.219 -11.31,17.25 -1.93,2.699 -3.74,5.14 -5.46,7.402 l 0.21,-0.023 -2.87,12.48 c -3.02,8.371 -13.79,22.75 -23.74,22.403 -7.17,-0.243 -11.81,-6.942 -10.88,-13.762 0.96,-6.969 7.44,-12.711 13.24,-15.969" /><path
         id="path30"
         style="fill:#17282f;fill-opacity:1;fill-rule:nonzero;stroke:none"
         d="m 6519.94,386.27 c -15.35,-4.54 -50.87,0.71 -50.9,0.722 -0.37,0.059 10.58,22.36 11.43,23.699 9.86,15.36 37.95,39.258 57.71,34.028 14.25,-3.77 20.49,-19.278 15.51,-32.5 -5.08,-13.52 -20.66,-22.078 -33.75,-25.949" /><path
         id="path32"
         style="fill:#17282f;fill-opacity:1;fill-rule:nonzero;stroke:none"
         d="m 6188.34,401.129 c -0.33,-0.149 -3.52,24.492 -3.53,26.062 -0.26,18.258 9.99,53.688 29.36,60.231 13.96,4.719 27.72,-4.77 30.87,-18.551 3.21,-14.07 -5.07,-29.82 -13.84,-40.262 -10.3,-12.25 -42.83,-27.468 -42.86,-27.48" /><path
         id="path34"
         style="fill:#17282f;fill-opacity:1;fill-rule:nonzero;stroke:none"
         d="m 6112.32,467.039 c 10.73,-6 36.03,-8.609 42.32,-9.18 3.13,-4.289 6.43,-8.91 9.97,-14.109 6.13,-9.191 12.99,-19.609 19.67,-31.441 1.79,-3.161 3.58,-6.618 5.38,-9.938 -4.19,4.969 -10.05,11.699 -10.69,12.301 -11.8,10.879 -40.99,24.969 -56.65,16.129 -11.26,-6.36 -13.13,-20.942 -5.96,-31.082 7.31,-10.36 22.47,-14.188 34.45,-14.567 12.51,-0.402 36.72,9.27 41.99,11.43 3.88,-7.41 7.69,-15.121 11.18,-23.391 6.08,-14.269 11.8,-29.8 15.56,-46.312 l -0.95,-0.41 c -3.31,5.051 -10.51,15.511 -11.21,16.301 -10.52,12.121 -37.99,29.332 -54.52,22.261 -11.9,-5.09 -15.36,-19.359 -9.35,-30.23 6.14,-11.121 20.79,-16.582 32.65,-18.281 13.67,-1.95 42.88,6.722 43.98,7.062 3.33,-15.461 5.56,-31.59 6.91,-48.102 1,-11.96 1.52,-24.121 1.93,-36.32 -2.24,3.61 -11.68,17.36 -12.49,18.262 -10.52,12.117 -37.99,29.328 -54.52,22.258 -11.9,-5.09 -15.36,-19.371 -9.35,-30.239 6.14,-11.101 20.79,-16.57 32.65,-18.269 13.35,-1.902 41.37,6.277 43.73,6.976 0.18,-5.539 0.39,-11.078 0.52,-16.628 0.46,-18.141 0.83,-36.321 1.76,-54.25 0.31,-6.211 0.86,-12.329 1.38,-18.45 -3.52,5.309 -10.1,14.852 -10.76,15.61 -10.53,12.101 -37.99,29.32 -54.53,22.25 -11.9,-5.09 -15.36,-19.36 -9.34,-30.239 6.13,-11.109 20.78,-16.57 32.64,-18.261 11.93,-1.711 35.64,4.66 42.29,6.562 0.93,-10.191 2.08,-20.273 3.69,-30.14 0.78,-4.243 1.31,-8.622 2.3,-12.653 0.9,-4.0779 1.8,-8.117 2.69,-12.1092 2.13,-8.2187 4.07,-15.8515 6.25,-23.4375 1.08,-3.8515 2.18,-7.4531 3.27,-11.1718 -2.75,5.9101 -7.27,15.2109 -7.78,16.0078 -8.57,13.5703 -33.12,34.7417 -50.52,30.2617 -12.55,-3.2305 -18.12,-16.8203 -13.83,-28.4687 4.39,-11.9219 18.04,-19.5313 29.52,-23.0118 12.64,-3.8281 40.64,-0.2109 44.06,0.25 2.71,-9.0976 5.45,-17.9297 8.15,-26.1484 2.2,-6.7109 4.34,-12.9922 6.45,-19.03126 h 11.81 c -2.63,6.99996 -5.37,14.48046 -8.17,22.46096 -2.61,7.3711 -5.25,15.2187 -7.88,23.3203 3.15,1.2578 27.5,11.1875 37.39,20.4687 10.11,-6.6484 21.65,-12.3203 23.68,-13.3007 -2.74,-9.0782 -5.34,-17.9493 -7.61,-26.2969 -2.61,-9.4805 -4.91,-18.3633 -6.97,-26.65236 h 11.56 c 1.71,7.53906 3.56,15.44146 5.71,23.94146 1.88,7.5898 4.02,15.5976 6.29,23.8007 3.45,-0.7109 31.06,-6.2422 43.93,-3.3007 11.68,2.6679 25.83,9.3203 31.04,20.8906 5.1,11.3281 0.47,25.2695 -11.81,29.3672 -17.06,5.6799 -43.02,-13.7305 -52.51,-26.668 -0.61,-0.832 -6.7,-11.4297 -9.69,-16.9102 1.39,4.961 2.76,9.8907 4.29,15.0196 2.15,7.3984 4.67,15.1601 7.05,22.6797 1.39,3.8593 2.79,7.7498 4.19,11.6918 1.35,4 3.11,7.64 4.66,11.546 2.4,5.653 5.17,11.372 7.9,17.071 7.4,-2.649 29.27,-10.02 40.85,-9.168 11.95,0.871 26.94,5.289 33.84,15.949 6.76,10.43 4.31,24.91 -7.22,30.82 -15.99,8.192 -44.6,-7.058 -55.95,-18.422 -0.37,-0.359 -2.52,-3.007 -5.03,-6.168 2.85,5.489 5.67,10.969 8.74,16.442 8.7,15.519 18.05,31.047 27.35,46.648 1.94,3.262 3.83,6.539 5.75,9.789 6.22,-2.25 29.83,-10.449 41.97,-9.57 11.96,0.871 26.95,5.301 33.84,15.949 6.76,10.434 4.3,24.914 -7.23,30.821 -15.98,8.203 -44.58,-7.047 -55.93,-18.407 -0.41,-0.402 -2.97,-3.582 -5.8,-7.14 4.93,8.539 9.74,17.129 14.25,25.797 7.9,15.152 14.87,30.5 20.43,45.902 2.19,-0.82 29.68,-11 43.17,-10.012 11.95,0.871 26.94,5.289 33.85,15.949 6.74,10.434 4.29,24.911 -7.23,30.821 -16,8.191 -44.6,-7.059 -55.95,-18.41 -0.8,-0.809 -9.98,-12.34 -13.11,-16.559 l 0.21,0.539 c 5.7,16.223 9.13,32.41 11.65,47.93 2.53,15.472 3.6,30.261 4.22,43.883 0.66,13.628 0.43,26.136 0.14,37.207 -0.21,5.992 -0.51,11.472 -0.84,16.582 l 0.29,-0.25 c 0.26,-0.192 7.79,20.308 8.12,21.648 3.78,15.602 1.9,47.961 -13.43,57.352 -11.05,6.757 -24.69,1.308 -30.07,-9.891 -5.5,-11.441 -1.47,-26.551 4.01,-37.199 5.63,-10.922 25.3,-27.051 30.23,-31 0.24,-5.309 0.44,-10.981 0.53,-17.27 0.04,-11.051 0.01,-23.519 -0.94,-37.082 -0.25,-3.617 -0.67,-7.488 -0.99,-11.25 -0.76,6.449 -1.93,15.313 -2.14,16.153 -3.83,15.589 -20.41,43.449 -38.34,44.707 -12.92,0.902 -22.51,-10.219 -22.13,-22.637 0.39,-12.68 10.92,-24.231 20.71,-31.16 10.2,-7.231 35.73,-12.52 41.33,-13.621 -0.86,-8.332 -1.95,-16.86 -3.59,-25.692 -2.8,-15.25 -6.6,-31.367 -12.58,-47.219 l -1,0.192 c 0.03,6.027 -0.22,18.75 -0.35,19.789 -2.1,15.91 -15.52,45.418 -33.21,48.648 -12.73,2.321 -23.49,-7.687 -24.48,-20.07 -1.01,-12.648 8.2,-25.277 17.16,-33.238 10.32,-9.18 39.47,-18.059 40.56,-18.391 -5.75,-14.73 -12.78,-29.41 -20.76,-43.93 -5.77,-10.531 -12.04,-20.949 -18.43,-31.351 0.13,4.242 -0.17,20.922 -0.33,22.121 -2.11,15.91 -15.51,45.422 -33.2,48.648 -12.74,2.321 -23.5,-7.687 -24.48,-20.066 -1.01,-12.652 8.19,-25.293 17.16,-33.242 10.07,-8.969 37.96,-17.598 40.32,-18.32 -2.91,-4.719 -5.79,-9.45 -8.74,-14.161 -9.63,-15.379 -19.35,-30.75 -28.47,-46.218 -3.16,-5.352 -6.08,-10.75 -9.03,-16.141 0,6.371 -0.23,17.949 -0.36,18.949 -2.1,15.91 -15.52,45.422 -33.2,48.641 -12.74,2.32 -23.49,-7.68 -24.48,-20.059 -1,-12.652 8.19,-25.281 17.16,-33.25 8.99,-8 32.28,-15.761 38.88,-17.851 -4.84,-9.02 -9.44,-18.059 -13.55,-27.168 -1.68,-3.981 -3.65,-7.922 -5.06,-11.821 -1.49,-3.902 -2.98,-7.769 -4.44,-11.5894 -2.75,-8.0313 -5.34,-15.4805 -7.71,-23.0118 -1.23,-3.8007 -2.29,-7.3984 -3.43,-11.1093 0.96,6.4609 2.32,16.6992 2.34,17.6484 0.33,16.043 -8.46,47.2421 -25.45,53.1011 -12.24,4.231 -24.38,-4.019 -27.24,-16.109 -0.36,-1.539 -0.56,-3.109 -0.63,-4.68 -8.4,-11.609 -13.42,-28.6207 -13.94,-39.2808 -0.05,-1.0196 0.72,-13.2188 1.24,-19.4297 -1.57,4.8984 -3.15,9.7578 -4.7,14.8789 -2.29,7.3711 -4.47,15.2226 -6.63,22.8203 -0.97,3.9687 -1.96,7.9922 -2.95,12.0503 -1.1,4.079 -1.63,8.09 -2.49,12.2 -1.12,6.039 -1.97,12.332 -2.83,18.609 7.63,1.871 29.94,7.781 39.13,14.871 9.49,7.32 19.55,19.289 19.43,31.969 -0.12,12.43 -10.16,23.16 -23.03,21.723 -17.86,-1.981 -33.3,-30.493 -36.5,-46.211 -0.11,-0.512 -0.44,-3.911 -0.79,-7.93 -0.66,6.141 -1.34,12.289 -1.79,18.539 -1.3,17.742 -2.07,35.859 -2.92,54 -0.18,3.781 -0.41,7.551 -0.6,11.34 6.43,1.551 30.65,7.73 40.28,15.16 9.49,7.332 19.55,19.289 19.43,31.98 -0.12,12.422 -10.15,23.141 -23.03,21.711 -17.86,-1.98 -33.3,-30.48 -36.5,-46.222 -0.12,-0.547 -0.51,-4.61 -0.9,-9.149 -0.6,9.86 -1.33,19.668 -2.34,29.391 -1.77,16.988 -4.43,33.629 -8.27,49.551 2.26,0.519 30.81,7.207 41.52,15.457 9.49,7.32 19.55,19.293 19.42,31.972 -0.11,12.418 -10.15,23.161 -23.02,21.731 -17.86,-1.992 -33.3,-30.5 -36.51,-46.223 -0.22,-1.109 -1.52,-15.789 -1.8,-21.051 l -0.12,0.582 c -4.2,16.668 -10.26,32.071 -16.73,46.399 -6.43,14.293 -13.69,27.211 -20.68,38.922 -6.97,11.738 -14.07,22.039 -20.41,31.121 -3.49,4.879 -6.76,9.277 -9.86,13.348 l 0.38,-0.02 c 0.34,-0.031 -4.7,21.219 -5.17,22.52 -5.46,15.089 -24.87,41.05 -42.83,40.421 -12.94,-0.453 -21.32,-12.531 -19.63,-24.839 1.73,-12.571 13.42,-22.954 23.86,-28.813" /><path
         id="path36"
         style="fill:#17282f;fill-opacity:1;fill-rule:nonzero;stroke:none"
         d="m 31.0078,0 h 6583.16 V 10 H 31.0078 Z" /><path
         id="path38"
         style="fill:#17282f;fill-opacity:1;fill-rule:nonzero;stroke:none"
         d="m 3181.04,3260.58 4.19,2.72 c -0.09,0.13 -58.25,89.81 -140.54,179.68 -41.15,44.93 -88.32,89.92 -137.46,123.81 -49.13,33.86 -100.28,56.79 -149.69,56.83 -5.33,0 -10.65,-0.27 -15.93,-0.82 -49.08,-5.16 -85.66,-18.15 -113.86,-36.68 -42.35,-27.82 -65.35,-67.8 -84.36,-110.71 -19.02,-42.96 -34.27,-89.08 -60.65,-130.49 -9.14,-14.36 -18.76,-23.74 -28.72,-29.58 -9.98,-5.83 -20.4,-8.22 -31.62,-8.23 -26.23,-0.09 -56.72,13.76 -89.25,28.1 -32.55,14.25 -67.26,28.91 -103.27,28.94 -13.44,0.01 -27.05,-2.07 -40.63,-7.01 -28.59,-10.39 -47.8,-22.9 -61.45,-36.39 -20.5,-20.25 -28.19,-42.34 -37.24,-61.14 -9.17,-18.89 -19,-34.44 -44.47,-45.47 -5.47,-2.35 -11.67,-3.46 -18.61,-3.46 -15.49,-0.03 -34.52,5.68 -55.13,14.52 -30.94,13.23 -65.43,33.33 -98.51,50.2 -33.14,16.83 -64.73,30.66 -91.39,30.76 -12.52,0.02 -24.18,-3.25 -33.6,-11.12 -31.41,-26.2 -52.08,-59.92 -69.96,-89.28 -8.93,-14.68 -17.17,-28.28 -25.55,-39.28 -8.37,-11.03 -16.85,-19.36 -26,-23.92 -4.48,-2.24 -9.72,-3.24 -15.76,-3.24 -13.67,-0.05 -30.99,5.38 -49.08,11.04 -18.13,5.63 -37.08,11.48 -55.16,11.51 -16.59,0.09 -32.86,-5.37 -44.98,-20.66 -40.83,-51.03 -40.83,-51.03 -40.83,-51.03 -1.21,-1.5 -1.44,-3.55 -0.61,-5.29 0.84,-1.74 2.58,-2.84 4.51,-2.84 h 2000.58 c 2.24,0 4.23,1.52 4.82,3.69 0.07,0.28 5.79,21.26 5.8,49.53 -0.01,18.83 -2.55,40.94 -11.2,62.28 -8.64,21.33 -23.52,41.9 -47.81,57.06 -25.89,16.21 -46.46,21.66 -64.99,21.63 -15.98,-0.01 -30.13,-3.93 -44.88,-7.65 -14.76,-3.73 -30.17,-7.34 -49.16,-7.34 -10.8,0 -22.78,1.17 -36.47,4.21 l -1.08,-4.88 4.19,2.72 -4.19,-2.72 -1.09,-4.88 c 14.36,-3.2 27.11,-4.45 38.64,-4.45 20.27,0 36.74,3.89 51.61,7.64 14.9,3.79 28.14,7.36 42.43,7.35 16.53,-0.03 34.85,-4.62 59.69,-20.11 22.37,-14 35.82,-32.6 43.84,-52.34 8.01,-19.72 10.47,-40.58 10.47,-58.52 0,-13.46 -1.37,-25.25 -2.75,-33.65 -0.68,-4.19 -1.37,-7.54 -1.88,-9.82 -0.25,-1.14 -0.46,-2.01 -0.6,-2.59 l -0.22,-0.84 4.83,-1.32 v 5 H 1425.43 v -5 l 3.9,-3.12 c 0,0 0,0 40.83,51.04 10.26,12.69 22.5,16.8 37.18,16.9 15.88,0.02 34.13,-5.4 52.18,-11.05 18.09,-5.61 35.91,-11.46 52.06,-11.5 7.12,0 14,1.19 20.23,4.3 11.26,5.65 20.64,15.18 29.49,26.81 26.4,34.89 49.15,89.68 93.96,126.93 7.35,6.1 16.29,8.77 27.19,8.8 15.4,0.02 34.38,-5.68 54.95,-14.52 30.89,-13.23 65.36,-33.33 98.47,-50.2 33.17,-16.83 64.84,-30.66 91.61,-30.76 7.99,0 15.6,1.29 22.55,4.27 18.67,7.96 30.46,18.99 38.83,31.27 12.56,18.47 18,39.1 30.58,58.42 12.56,19.31 31.9,38.01 73.22,53.1 12.42,4.51 24.8,6.41 37.22,6.41 33.22,0.05 66.83,-13.83 99.26,-28.1 32.46,-14.18 63.61,-28.86 93.26,-28.94 12.66,-0.02 25.06,2.79 36.67,9.6 11.61,6.8 22.34,17.48 32.11,32.84 36.24,57.07 51.59,121.02 81.75,172.4 15.06,25.71 33.66,48.29 60.31,65.81 26.66,17.51 61.53,30.04 109.42,35.09 4.92,0.52 9.88,0.77 14.88,0.77 46.22,0.04 95.81,-21.78 144.02,-55.06 72.31,-49.86 141.29,-125.1 192.02,-187.84 25.37,-31.37 46.2,-59.61 60.69,-79.99 7.24,-10.2 12.89,-18.43 16.72,-24.1 3.84,-5.68 5.84,-8.76 5.85,-8.77 0.72,-1.11 1.83,-1.88 3.11,-2.16 l 1.09,4.88" /><path
         id="path40"
         style="fill:#17282f;fill-opacity:1;fill-rule:nonzero;stroke:none"
         d="m 4936.33,3381.46 4.19,2.72 c -0.09,0.13 -29.19,45.01 -70.45,90.08 -20.64,22.53 -44.31,45.12 -69.09,62.21 -24.77,17.06 -50.71,28.79 -76.19,28.83 -2.75,0 -5.49,-0.14 -8.22,-0.42 -24.82,-2.61 -43.52,-9.21 -57.99,-18.72 -21.75,-14.29 -33.5,-34.81 -43.05,-56.37 -9.56,-21.63 -17.15,-44.52 -30.12,-64.86 -4.41,-6.92 -8.93,-11.29 -13.5,-13.96 -4.58,-2.67 -9.28,-3.76 -14.53,-3.77 -12.25,-0.09 -27.32,6.62 -43.58,13.82 -16.29,7.12 -33.9,14.64 -52.59,14.68 -6.97,0 -14.08,-1.08 -21.15,-3.66 -14.54,-5.28 -24.5,-11.72 -31.6,-18.75 -10.68,-10.56 -14.65,-22.05 -19.1,-31.24 -4.55,-9.28 -8.87,-16.21 -20.94,-21.49 -2.36,-1.01 -5.11,-1.52 -8.31,-1.52 -7.14,-0.03 -16.41,2.68 -26.55,7.05 -15.25,6.51 -32.45,16.53 -49.06,25 -16.67,8.43 -32.59,15.54 -46.79,15.63 -6.66,0.03 -13.16,-1.76 -18.38,-6.13 -16.09,-13.43 -26.54,-30.55 -35.49,-45.21 -4.46,-7.34 -8.55,-14.08 -12.61,-19.41 -4.06,-5.36 -8.08,-9.22 -12.12,-11.22 -1.8,-0.91 -4.01,-1.36 -6.75,-1.36 -6.21,-0.05 -14.74,2.56 -23.77,5.4 -9.08,2.81 -18.72,5.83 -28.3,5.86 -8.77,0.1 -17.9,-2.97 -24.42,-11.25 -20.4,-25.49 -20.4,-25.49 -20.4,-25.49 -1.2,-1.51 -1.44,-3.55 -0.6,-5.29 0.83,-1.74 2.58,-2.84 4.51,-2.84 h 999.32 c 2.25,0 4.23,1.52 4.82,3.68 0.07,0.29 2.98,10.95 2.99,25.4 -0.01,9.63 -1.3,20.99 -5.78,32.05 -4.47,11.06 -12.26,21.82 -24.88,29.69 -13.19,8.28 -24.03,11.21 -33.78,11.19 -8.42,-0.02 -15.71,-2.06 -23.04,-3.9 -7.35,-1.87 -14.78,-3.59 -23.94,-3.6 -5.22,0 -11.01,0.57 -17.68,2.05 l -1.08,-4.88 4.19,2.72 -4.19,-2.72 -1.09,-4.88 c 7.35,-1.64 13.91,-2.29 19.85,-2.29 10.45,0 18.94,2.01 26.39,3.9 7.48,1.9 13.87,3.6 20.59,3.6 7.75,-0.03 16.34,-2.11 28.48,-9.67 10.7,-6.71 17.06,-15.51 20.91,-24.97 3.84,-9.44 5.05,-19.56 5.05,-28.29 0,-6.55 -0.67,-12.31 -1.34,-16.4 -0.33,-2.04 -0.67,-3.67 -0.91,-4.76 l -0.29,-1.24 -0.09,-0.36 4.82,-1.32 v 5 h -999.32 v -5 l 3.9,-3.12 c 0,0 0,0 20.4,25.49 4.65,5.69 9.76,7.4 16.61,7.5 7.38,0.03 16.33,-2.58 25.32,-5.4 9.04,-2.79 18.06,-5.82 26.75,-5.86 3.83,0 7.67,0.64 11.22,2.41 6.16,3.1 11.07,8.16 15.61,14.11 13.47,17.9 24.72,44.9 46.54,63 3.15,2.61 6.94,3.79 11.98,3.81 7.1,0.03 16.34,-2.68 26.46,-7.04 15.22,-6.52 32.42,-16.54 49.04,-25.01 16.69,-8.43 32.65,-15.54 46.9,-15.63 4.26,0 8.41,0.68 12.25,2.33 9.74,4.13 16.1,10.05 20.48,16.51 6.57,9.73 9.25,20 15.31,29.23 6.03,9.23 15.07,18.1 35.33,25.53 5.9,2.15 11.78,3.05 17.73,3.06 15.89,0.03 32.4,-6.7 48.57,-13.83 16.2,-7.05 31.93,-14.58 47.6,-14.67 6.68,-0.01 13.38,1.5 19.58,5.14 6.21,3.63 11.85,9.29 16.89,17.22 18.36,28.98 26.05,61 40.88,86.2 7.4,12.62 16.41,23.54 29.34,32.04 12.93,8.49 29.92,14.64 53.54,17.13 2.37,0.25 4.77,0.37 7.18,0.37 22.29,0.04 46.67,-10.58 70.52,-27.06 35.78,-24.65 70.14,-62.1 95.39,-93.34 12.63,-15.62 23.01,-29.69 30.22,-39.83 3.6,-5.08 6.41,-9.17 8.32,-11.99 1.91,-2.82 2.89,-4.34 2.89,-4.35 0.72,-1.1 1.83,-1.87 3.11,-2.15 l 1.09,4.88" /><path
         id="path42"
         style="fill:#17282f;fill-opacity:1;fill-rule:nonzero;stroke:none"
         d="m 5518.31,2847.47 4.19,2.72 c -0.09,0.14 -30.11,46.44 -72.68,92.94 -21.29,23.24 -45.71,46.54 -71.26,64.17 -25.55,17.59 -52.3,29.68 -78.54,29.72 -2.83,0 -5.65,-0.14 -8.46,-0.44 -25.59,-2.69 -44.86,-9.49 -59.77,-19.29 -22.41,-14.72 -34.51,-35.86 -44.36,-58.1 -9.86,-22.31 -17.7,-45.94 -31.09,-66.95 -4.56,-7.15 -9.25,-11.68 -13.99,-14.45 -4.75,-2.77 -9.63,-3.9 -15.07,-3.91 -12.69,-0.09 -28.25,6.85 -45.03,14.28 -16.81,7.34 -34.97,15.09 -54.21,15.13 -7.18,0 -14.49,-1.12 -21.77,-3.77 -14.99,-5.44 -25.24,-12.08 -32.55,-19.31 -10.99,-10.87 -15.09,-22.7 -19.67,-32.19 -4.7,-9.59 -9.2,-16.79 -21.69,-22.26 -2.46,-1.05 -5.32,-1.58 -8.64,-1.58 -7.41,-0.04 -16.99,2.78 -27.46,7.28 -15.75,6.73 -33.5,17.07 -50.63,25.81 -17.2,8.69 -33.62,16.02 -48.21,16.12 -6.85,0.02 -13.51,-1.81 -18.86,-6.3 -16.59,-13.83 -27.36,-31.48 -36.59,-46.61 -4.6,-7.57 -8.82,-14.53 -13.02,-20.05 -4.2,-5.54 -8.36,-9.54 -12.56,-11.62 -1.89,-0.94 -4.2,-1.42 -7.04,-1.42 -6.45,-0.05 -15.26,2.65 -24.58,5.59 -9.37,2.89 -19.3,6 -29.15,6.03 -9.02,0.1 -18.38,-3.04 -25.08,-11.55 -21.05,-26.31 -21.05,-26.31 -21.05,-26.31 -1.2,-1.51 -1.43,-3.55 -0.6,-5.29 0.84,-1.73 2.58,-2.83 4.51,-2.83 h 1031.18 c 2.25,0 4.23,1.51 4.82,3.68 0.07,0.28 3.07,11.27 3.08,26.17 -0.01,9.92 -1.34,21.62 -5.95,33.01 -4.6,11.39 -12.62,22.46 -25.61,30.56 -13.6,8.53 -24.75,11.54 -34.78,11.51 -8.65,0 -16.16,-2.11 -23.72,-4.01 -7.59,-1.92 -15.27,-3.71 -24.75,-3.71 -5.39,0 -11.38,0.58 -18.27,2.11 l -1.09,-4.88 4.19,2.72 -4.19,-2.72 -1.08,-4.88 c 7.57,-1.68 14.32,-2.35 20.44,-2.35 10.76,-0.01 19.51,2.07 27.2,4.01 7.71,1.97 14.32,3.73 21.27,3.71 8.03,-0.02 16.93,-2.18 29.48,-9.99 11.07,-6.94 17.65,-16.05 21.64,-25.83 3.97,-9.78 5.22,-20.23 5.22,-29.26 0,-6.77 -0.69,-12.73 -1.39,-16.95 -0.34,-2.12 -0.68,-3.8 -0.94,-4.93 l -0.3,-1.28 -0.09,-0.38 4.82,-1.31 v 5 H 4613.4 v -5 l 3.9,-3.12 c 0,0 0,0 21.05,26.3 4.83,5.92 10.17,7.71 17.27,7.8 7.65,0.03 16.89,-2.67 26.17,-5.58 9.33,-2.87 18.63,-5.99 27.56,-6.04 3.93,0 7.87,0.66 11.51,2.48 6.32,3.17 11.37,8.38 16.05,14.51 13.87,18.44 25.49,46.33 48.05,65.03 3.29,2.72 7.24,3.95 12.46,3.98 7.36,0.03 16.91,-2.78 27.37,-7.29 15.72,-6.73 33.46,-17.07 50.61,-25.81 17.21,-8.7 33.67,-16.02 48.32,-16.11 4.38,0 8.63,0.7 12.58,2.39 10.02,4.26 16.55,10.34 21.06,16.98 6.75,10 9.53,20.61 15.79,30.16 6.24,9.55 15.61,18.74 36.54,26.41 6.11,2.22 12.2,3.16 18.35,3.17 16.44,0.03 33.5,-6.93 50.19,-14.29 16.72,-7.27 32.94,-15.04 49.05,-15.12 6.87,-0.02 13.75,1.53 20.12,5.28 6.39,3.73 12.19,9.55 17.37,17.72 18.94,29.87 26.86,62.91 42.19,88.93 7.64,13.04 16.96,24.33 30.32,33.12 13.37,8.78 30.93,15.13 55.32,17.71 2.45,0.25 4.93,0.38 7.42,0.38 23.05,0.04 48.24,-10.94 72.86,-27.95 36.94,-25.46 72.41,-64.11 98.47,-96.35 13.04,-16.12 23.75,-30.64 31.19,-41.11 3.72,-5.24 6.62,-9.47 8.59,-12.38 1.97,-2.91 2.98,-4.48 2.99,-4.48 0.71,-1.11 1.82,-1.87 3.11,-2.16 l 1.08,4.88" /><path
         id="path44"
         style="fill:hsl(252, 75%, 60%);fill-opacity:1;fill-rule:nonzero;stroke:none"
         d="m 1755.98,2088.83 c 171.23,-868.25 -366.74,-506.62 -819.125,-506.62 -452.39,0 -1025.6323,-294.46 -819.125,506.62 117.997,457.73 366.735,743.9 819.125,743.9 452.385,0 746.905,-377.74 819.125,-743.9" /><path
         id="path46"
         style="fill:#93d8ad;fill-opacity:1;fill-rule:nonzero;stroke:none"
         d="m 1532.04,1507.52 c -166.34,0 -389.59,74.69 -595.185,74.69 -191.652,0 -405.035,-52.85 -571.593,-52.86 -169.844,-0.01 -291.0042,54.9 -290.9339,276.85 0.0235,74.16 13.5938,167 43.4019,282.63 117.997,457.73 366.735,743.9 819.125,743.9 452.385,0 746.905,-377.74 819.125,-743.9 22.3,-113.09 32.57,-205.32 32.56,-280.2 -0.01,-238.74 -104.49,-301.11 -256.5,-301.11" /><path
         id="path48"
         style="fill:#949695;fill-opacity:1;fill-rule:nonzero;stroke:none"
         d="M 678.672,1661.03 899.293,1492.66 876.699,5.01953 H 1010 L 984.395,1768.77 1299.9,2115.8 980.574,1842.93 l -11.609,516.71 -34.832,-354.15 -82.117,59.56 -179.149,253.96 115.156,-230.84 -370.617,149.56 377.715,-213.44 124.309,-86.15 -14.332,-375.81 -226.426,98.7" /><path
         id="path50"
         style="fill:#ffffff;fill-opacity:1;fill-rule:nonzero;stroke:none"
         d="m 803.121,2504.53 c 0,0 -12.086,-55.94 13.024,-102.35 25.105,-46.42 59.429,-77.25 59.429,-77.25 0,0 24.934,88.3 -72.453,179.6" /><path
         id="path52"
         style="fill:#ffffff;fill-opacity:1;fill-rule:nonzero;stroke:none"
         d="m 334.172,2010.4 c 0,0 43.137,-37.62 95.902,-38.06 52.77,-0.45 96.352,14.71 96.352,14.71 0,0 -65.266,64.49 -192.254,23.35" /><path
         id="path54"
         style="fill:#ffffff;fill-opacity:1;fill-rule:nonzero;stroke:none"
         d="m 268.461,1778.55 c 0,0 52.359,-23.12 102.883,-7.88 50.515,15.23 87.644,42.63 87.644,42.63 0,0 -81.465,42.23 -190.527,-34.75" /><path
         id="path56"
         style="fill:#ffffff;fill-opacity:1;fill-rule:nonzero;stroke:none"
         d="m 581.176,1754.41 c 0,0 57.226,0.76 96.832,35.63 39.605,34.87 61.965,75.23 61.965,75.23 0,0 -91.649,4.51 -158.797,-110.86" /><path
         id="path58"
         style="fill:#ffffff;fill-opacity:1;fill-rule:nonzero;stroke:none"
         d="m 449.238,2446.68 c 0,0 12.981,-55.74 55.512,-86.97 42.535,-31.24 86.75,-44.44 86.75,-44.44 0,0 -15.199,90.48 -142.262,131.41" /><path
         id="path60"
         style="fill:#ffffff;fill-opacity:1;fill-rule:nonzero;stroke:none"
         d="m 1382.3,2488 c 0,0 -56.67,-8.03 -91.52,-47.65 -34.86,-39.62 -51.9,-82.5 -51.9,-82.5 0,0 91.47,7.18 143.42,130.15" /><path
         id="path62"
         style="fill:#ffffff;fill-opacity:1;fill-rule:nonzero;stroke:none"
         d="m 1578.65,2193.53 c 0,0 -55.95,12.04 -102.34,-13.11 -46.39,-25.15 -77.2,-59.5 -77.2,-59.5 0,0 88.33,-24.85 179.54,72.61" /><path
         id="path64"
         style="fill:#ffffff;fill-opacity:1;fill-rule:nonzero;stroke:none"
         d="m 1559.45,1859.03 c 0,0 -40.35,40.6 -92.95,44.81 -52.59,4.21 -97.15,-7.79 -97.15,-7.79 0,0 60.49,-68.99 190.1,-37.02" /><path
         id="path66"
         style="fill:#ffffff;fill-opacity:1;fill-rule:nonzero;stroke:none"
         d="m 1340.3,1679.55 c 0,0 -23.22,52.31 -70.87,74.99 -47.64,22.68 -93.55,27.35 -93.55,27.35 0,0 31.93,-86.03 164.42,-102.34" /><path
         id="path68"
         style="fill:#ffffff;fill-opacity:1;fill-rule:nonzero;stroke:none"
         d="m 1224.97,2222.3 c 0,0 -56.67,-8.03 -91.52,-47.65 -34.85,-39.62 -51.9,-82.5 -51.9,-82.5 0,0 91.48,7.18 143.42,130.15" /><path
         id="path70"
         style="fill:#ffffff;fill-opacity:1;fill-rule:nonzero;stroke:none"
         d="m 296.516,2296.09 c 0,0 25.218,-51.38 73.699,-72.21 48.48,-20.83 94.535,-23.73 94.535,-23.73 0,0 -35.215,84.73 -168.234,95.94" /><path
         id="path72"
         style="fill:#ffffff;fill-opacity:1;fill-rule:nonzero;stroke:none"
         d="m 1104.56,2566.85 c 0,0 -45.88,-34.22 -57.46,-85.7 -11.58,-51.48 -5.98,-97.28 -5.98,-97.28 0,0 76.83,50.16 63.44,182.98" /><path
         id="path74"
         style="fill:#ffffff;fill-opacity:1;fill-rule:nonzero;stroke:none"
         d="m 931.527,2728.77 c 0,0 -26.043,-50.97 -13.699,-102.27 12.348,-51.3 37.606,-89.92 37.606,-89.92 0,0 46.766,78.94 -23.907,192.19" /><path
         id="path76"
         style="fill:#ffffff;fill-opacity:1;fill-rule:nonzero;stroke:none"
         d="m 556.977,2674.34 c 0,0 0,-57.24 34.343,-97.3 34.34,-40.07 74.403,-62.96 74.403,-62.96 0,0 5.726,91.58 -108.746,160.26" /><path
         id="path78"
         style="fill:hsl(252, 75%, 60%);fill-opacity:1;fill-rule:nonzero;stroke:none"
         d="m 5495.3,1862.92 c 152.68,-774.13 -326.97,-451.7 -730.31,-451.7 -403.35,0 -914.44,-262.53 -730.32,451.7 105.2,408.1 326.97,663.25 730.32,663.25 403.34,0 665.94,-336.79 730.31,-663.25" /><path
         id="path80"
         style="fill:#93d8ad;fill-opacity:1;fill-rule:nonzero;stroke:none"
         d="m 5140.48,1360.62 c -118.47,19.7 -250.63,50.6 -375.49,50.6 -170.88,0 -361.13,-47.12 -509.63,-47.12 -151.43,-0.01 -259.45,48.94 -259.39,246.83 0.02,66.12 12.12,148.89 38.7,251.99 105.2,408.1 326.97,663.25 730.32,663.25 347.8,0 590.96,-250.46 692.6,-528.74 -102.06,-66.05 -177.97,-168.21 -232.57,-298.78 -2.79,0.09 -5.53,0.13 -8.24,0.13 -37.44,0 -66.18,-7.74 -66.18,-7.74 0,0 18.92,-21.58 58.35,-33.25 -14.15,-38.36 -26.67,-78.92 -37.64,-121.48 -17.81,-69.09 -27.74,-127.12 -30.83,-175.69" /><path
         id="path82"
         style="fill:#949695;fill-opacity:1;fill-rule:nonzero;stroke:none"
         d="M 4534.79,1481.49 4731.5,1331.37 4711.35,5.01953 h 118.86 l -22.84,1572.53047 281.3,309.41 -284.71,-243.29 -10.35,460.7 -31.05,-315.77 -73.21,53.11 -159.73,226.43 102.67,-205.81 -330.43,133.34 336.76,-190.3 110.83,-76.8 -12.77,-335.08 -201.89,88" /><path
         id="path84"
         style="fill:#ffffff;fill-opacity:1;fill-rule:nonzero;stroke:none"
         d="m 4645.75,2233.55 c 0,0 -10.77,-49.88 11.61,-91.26 22.39,-41.38 52.99,-68.87 52.99,-68.87 0,0 22.23,78.72 -64.6,160.13" /><path
         id="path86"
         style="fill:#ffffff;fill-opacity:1;fill-rule:nonzero;stroke:none"
         d="m 4227.64,1792.98 c 0,0 38.46,-33.54 85.5,-33.93 47.06,-0.4 85.91,13.12 85.91,13.12 0,0 -58.18,57.5 -171.41,20.81" /><path
         id="path88"
         style="fill:#ffffff;fill-opacity:1;fill-rule:nonzero;stroke:none"
         d="m 4169.05,1586.27 c 0,0 46.69,-20.6 91.73,-7.02 45.05,13.57 78.15,38.01 78.15,38.01 0,0 -72.63,37.64 -169.88,-30.99" /><path
         id="path90"
         style="fill:#ffffff;fill-opacity:1;fill-rule:nonzero;stroke:none"
         d="m 4447.87,1564.75 c 0,0 51.03,0.68 86.33,31.76 35.31,31.1 55.24,67.08 55.24,67.08 0,0 -81.7,4.02 -141.57,-98.84" /><path
         id="path92"
         style="fill:#ffffff;fill-opacity:1;fill-rule:nonzero;stroke:none"
         d="m 4330.23,2181.97 c 0,0 11.58,-49.7 49.5,-77.54 37.93,-27.85 77.34,-39.63 77.34,-39.63 0,0 -13.54,80.68 -126.84,117.17" /><path
         id="path94"
         style="fill:#ffffff;fill-opacity:1;fill-rule:nonzero;stroke:none"
         d="m 5162.14,2218.81 c 0,0 -50.53,-7.16 -81.6,-42.49 -31.08,-35.32 -46.27,-73.55 -46.27,-73.55 0,0 81.55,6.4 127.87,116.04" /><path
         id="path96"
         style="fill:#ffffff;fill-opacity:1;fill-rule:nonzero;stroke:none"
         d="m 5337.21,1956.27 c 0,0 -49.9,10.73 -91.25,-11.69 -41.36,-22.43 -68.83,-53.06 -68.83,-53.06 0,0 78.75,-22.15 160.08,64.75" /><path
         id="path98"
         style="fill:#ffffff;fill-opacity:1;fill-rule:nonzero;stroke:none"
         d="m 5320.09,1658.03 c 0,0 -35.98,36.2 -82.87,39.95 -46.9,3.76 -86.62,-6.94 -86.62,-6.94 0,0 53.93,-61.52 169.49,-33.01" /><path
         id="path100"
         style="fill:#ffffff;fill-opacity:1;fill-rule:nonzero;stroke:none"
         d="m 5124.7,1498.01 c 0,0 -20.72,46.63 -63.2,66.85 -42.47,20.23 -83.4,24.39 -83.4,24.39 0,0 28.47,-76.7 146.6,-91.24" /><path
         id="path102"
         style="fill:#ffffff;fill-opacity:1;fill-rule:nonzero;stroke:none"
         d="m 5021.87,1981.92 c 0,0 -50.52,-7.16 -81.6,-42.49 -31.07,-35.33 -46.28,-73.55 -46.28,-73.55 0,0 81.57,6.4 127.88,116.04" /><path
         id="path104"
         style="fill:#ffffff;fill-opacity:1;fill-rule:nonzero;stroke:none"
         d="m 4194.07,2047.71 c 0,0 22.48,-45.81 65.72,-64.38 43.22,-18.58 84.27,-21.16 84.27,-21.16 0,0 -31.39,75.54 -149.99,85.54" /><path
         id="path106"
         style="fill:#ffffff;fill-opacity:1;fill-rule:nonzero;stroke:none"
         d="m 4914.51,2289.11 c 0,0 -40.91,-30.51 -51.23,-76.41 -10.32,-45.9 -5.33,-86.73 -5.33,-86.73 0,0 68.5,44.72 56.56,163.14" /><path
         id="path108"
         style="fill:#ffffff;fill-opacity:1;fill-rule:nonzero;stroke:none"
         d="m 4760.23,2433.48 c 0,0 -23.22,-45.44 -12.2,-91.18 11,-45.75 33.52,-80.17 33.52,-80.17 0,0 41.7,70.38 -21.32,171.35" /><path
         id="path110"
         style="fill:#ffffff;fill-opacity:1;fill-rule:nonzero;stroke:none"
         d="m 4426.3,2384.94 c 0,0 0,-51.02 30.61,-86.75 30.62,-35.72 66.34,-56.13 66.34,-56.13 0,0 5.11,81.65 -96.95,142.88" /><path
         id="path112"
         style="fill:hsl(252, 75%, 60%);fill-opacity:1;fill-rule:nonzero;stroke:none"
         d="m 6375.18,1536.31 c 125.83,-638.04 -269.5,-372.29 -601.94,-372.29 -332.44,0 -753.69,-216.379 -601.93,372.29 86.71,336.37 269.49,546.66 601.93,546.66 332.44,0 548.87,-277.59 601.94,-546.66" /><path
         id="path114"
         style="fill:#93d8ad;fill-opacity:1;fill-rule:nonzero;stroke:none"
         d="m 6210.63,1109.14 c -122.24,0 -286.3,54.88 -437.39,54.88 -140.83,0 -297.65,-38.83 -420.04,-38.84 -124.72,-0.01 -213.71,40.31 -213.79,203.12 -0.02,54.55 9.95,122.86 31.9,208.01 86.71,336.37 269.49,546.66 601.93,546.66 332.44,0 548.87,-277.59 601.94,-546.66 16.35,-82.95 23.9,-150.6 23.93,-205.57 0.08,-175.69 -76.72,-221.6 -188.48,-221.6" /><path
         id="path116"
         style="fill:#949695;fill-opacity:1;fill-rule:nonzero;stroke:none"
         d="M 5583.52,1221.93 5745.64,1098.21 5729.03,5.01953 h 97.96 l -18.82,1296.09047 231.86,255.02 -234.66,-200.52 -8.53,379.71 -25.6,-260.25 -60.34,43.76 -131.65,186.63 84.62,-169.64 -272.35,109.9 277.57,-156.84 91.35,-63.3 -10.54,-276.17 -166.38,72.52" /><path
         id="path118"
         style="fill:#ffffff;fill-opacity:1;fill-rule:nonzero;stroke:none"
         d="m 5674.96,1841.79 c 0,0 -8.88,-41.11 9.58,-75.22 18.45,-34.1 43.67,-56.76 43.67,-56.76 0,0 18.32,64.89 -53.25,131.98" /><path
         id="path120"
         style="fill:#ffffff;fill-opacity:1;fill-rule:nonzero;stroke:none"
         d="m 5330.35,1478.67 c 0,0 31.71,-27.63 70.48,-27.97 38.78,-0.32 70.81,10.81 70.81,10.81 0,0 -47.96,47.4 -141.29,17.16" /><path
         id="path122"
         style="fill:#ffffff;fill-opacity:1;fill-rule:nonzero;stroke:none"
         d="m 5282.07,1308.3 c 0,0 38.48,-16.99 75.61,-5.79 37.11,11.19 64.4,31.33 64.4,31.33 0,0 -59.86,31.02 -140.01,-25.54" /><path
         id="path124"
         style="fill:#ffffff;fill-opacity:1;fill-rule:nonzero;stroke:none"
         d="m 5511.87,1290.56 c 0,0 42.06,0.55 71.16,26.18 29.1,25.63 45.53,55.29 45.53,55.29 0,0 -67.35,3.31 -116.69,-81.47" /><path
         id="path126"
         style="fill:#ffffff;fill-opacity:1;fill-rule:nonzero;stroke:none"
         d="m 5414.91,1799.28 c 0,0 9.54,-40.97 40.8,-63.92 31.25,-22.95 63.74,-32.65 63.74,-32.65 0,0 -11.16,66.49 -104.54,96.57" /><path
         id="path128"
         style="fill:#ffffff;fill-opacity:1;fill-rule:nonzero;stroke:none"
         d="m 6100.58,1829.64 c 0,0 -41.65,-5.9 -67.26,-35.01 -25.61,-29.12 -38.13,-60.63 -38.13,-60.63 0,0 67.21,5.28 105.39,95.64" /><path
         id="path130"
         style="fill:#ffffff;fill-opacity:1;fill-rule:nonzero;stroke:none"
         d="m 6244.87,1613.25 c 0,0 -41.12,8.84 -75.21,-9.64 -34.08,-18.47 -56.73,-43.72 -56.73,-43.72 0,0 64.91,-18.27 131.94,53.36" /><path
         id="path132"
         style="fill:#ffffff;fill-opacity:1;fill-rule:nonzero;stroke:none"
         d="m 6230.75,1367.44 c 0,0 -29.65,29.84 -68.3,32.93 -38.65,3.1 -71.39,-5.72 -71.39,-5.72 0,0 44.46,-50.7 139.69,-27.21" /><path
         id="path134"
         style="fill:#ffffff;fill-opacity:1;fill-rule:nonzero;stroke:none"
         d="m 6069.72,1235.55 c 0,0 -17.07,38.44 -52.08,55.11 -35.01,16.67 -68.75,20.09 -68.75,20.09 0,0 23.46,-63.21 120.83,-75.2" /><path
         id="path136"
         style="fill:#ffffff;fill-opacity:1;fill-rule:nonzero;stroke:none"
         d="m 5984.96,1634.4 c 0,0 -41.64,-5.91 -67.25,-35.02 -25.61,-29.12 -38.14,-60.63 -38.14,-60.63 0,0 67.23,5.27 105.39,95.65" /><path
         id="path138"
         style="fill:#ffffff;fill-opacity:1;fill-rule:nonzero;stroke:none"
         d="m 5302.69,1688.61 c 0,0 18.53,-37.75 54.16,-53.05 35.62,-15.31 69.47,-17.44 69.47,-17.44 0,0 -25.88,62.26 -123.63,70.49" /><path
         id="path140"
         style="fill:#ffffff;fill-opacity:1;fill-rule:nonzero;stroke:none"
         d="m 5896.47,1887.59 c 0,0 -33.71,-25.15 -42.21,-62.98 -8.52,-37.83 -4.4,-71.49 -4.4,-71.49 0,0 56.46,36.86 46.61,134.47" /><path
         id="path142"
         style="fill:#ffffff;fill-opacity:1;fill-rule:nonzero;stroke:none"
         d="m 5769.33,2006.57 c 0,0 -19.14,-37.45 -10.07,-75.15 9.07,-37.7 27.63,-66.08 27.63,-66.08 0,0 34.37,58.01 -17.56,141.23" /><path
         id="path144"
         style="fill:#ffffff;fill-opacity:1;fill-rule:nonzero;stroke:none"
         d="m 5494.09,1966.57 c 0,0 0,-42.06 25.24,-71.5 25.23,-29.44 54.67,-46.27 54.67,-46.27 0,0 4.2,67.3 -79.91,117.77" /><path
         id="path146"
         style="fill:hsl(252, 75%, 60%);fill-opacity:1;fill-rule:nonzero;stroke:none"
         d="m 3476.15,2625.09 c 171.23,-868.26 -366.73,-506.63 -819.12,-506.63 -452.39,0 -1025.64,-294.46 -819.12,506.63 117.99,457.72 366.73,743.89 819.12,743.89 452.39,0 746.91,-377.74 819.12,-743.89" /><path
         id="path148"
         style="fill:#93d8ad;fill-opacity:1;fill-rule:nonzero;stroke:none"
         d="m 3252.22,2043.78 c -166.34,0 -389.6,74.68 -595.19,74.68 -191.66,0 -405.04,-52.84 -571.6,-52.85 -169.84,-0.01 -291,54.89 -290.93,276.84 0.03,74.16 13.6,167 43.41,282.64 117.99,457.72 366.73,743.89 819.12,743.89 452.39,0 746.91,-377.74 819.12,-743.89 22.31,-113.1 32.57,-205.33 32.57,-280.21 -0.01,-238.73 -104.5,-301.1 -256.5,-301.1" /><path
         id="path150"
         style="fill:#949695;fill-opacity:1;fill-rule:nonzero;stroke:none"
         d="M 2398.85,2197.28 2619.47,2028.91 2596.87,5.01953 h 133.3 l -25.6,2300.00047 315.5,347.03 -319.32,-272.87 -11.61,516.72 -34.84,-354.16 -82.11,59.56 -179.15,253.95 115.16,-230.83 -370.62,149.56 377.71,-213.44 124.31,-86.15 -14.33,-375.81 -226.42,98.7" /><path
         id="path152"
         style="fill:#ffffff;fill-opacity:1;fill-rule:nonzero;stroke:none"
         d="m 2523.3,3040.79 c 0,0 -12.09,-55.95 13.02,-102.36 25.11,-46.41 59.43,-77.25 59.43,-77.25 0,0 24.93,88.3 -72.45,179.61" /><path
         id="path154"
         style="fill:#ffffff;fill-opacity:1;fill-rule:nonzero;stroke:none"
         d="m 2054.34,2546.65 c 0,0 43.14,-37.62 95.91,-38.06 52.76,-0.45 96.35,14.71 96.35,14.71 0,0 -65.26,64.49 -192.26,23.35" /><path
         id="path156"
         style="fill:#ffffff;fill-opacity:1;fill-rule:nonzero;stroke:none"
         d="m 1988.64,2314.8 c 0,0 52.36,-23.11 102.87,-7.88 50.53,15.23 87.65,42.64 87.65,42.64 0,0 -81.46,42.22 -190.52,-34.76" /><path
         id="path158"
         style="fill:#ffffff;fill-opacity:1;fill-rule:nonzero;stroke:none"
         d="m 2301.35,2290.66 c 0,0 57.23,0.76 96.83,35.63 39.61,34.87 61.97,75.24 61.97,75.24 0,0 -91.65,4.5 -158.8,-110.87" /><path
         id="path160"
         style="fill:#ffffff;fill-opacity:1;fill-rule:nonzero;stroke:none"
         d="m 2169.41,2982.93 c 0,0 12.98,-55.74 55.52,-86.97 42.53,-31.23 86.74,-44.44 86.74,-44.44 0,0 -15.2,90.48 -142.26,131.41" /><path
         id="path162"
         style="fill:#ffffff;fill-opacity:1;fill-rule:nonzero;stroke:none"
         d="m 3102.47,3024.25 c 0,0 -56.67,-8.03 -91.52,-47.65 -34.85,-39.62 -51.9,-82.5 -51.9,-82.5 0,0 91.47,7.18 143.42,130.15" /><path
         id="path164"
         style="fill:#ffffff;fill-opacity:1;fill-rule:nonzero;stroke:none"
         d="m 3298.83,2729.78 c 0,0 -55.95,12.04 -102.35,-13.11 -46.39,-25.15 -77.19,-59.5 -77.19,-59.5 0,0 88.32,-24.85 179.54,72.61" /><path
         id="path166"
         style="fill:#ffffff;fill-opacity:1;fill-rule:nonzero;stroke:none"
         d="m 3279.62,2395.28 c 0,0 -40.34,40.6 -92.94,44.81 -52.6,4.21 -97.16,-7.79 -97.16,-7.79 0,0 60.49,-68.99 190.1,-37.02" /><path
         id="path168"
         style="fill:#ffffff;fill-opacity:1;fill-rule:nonzero;stroke:none"
         d="m 3060.48,2215.8 c 0,0 -23.23,52.31 -70.88,74.99 -47.64,22.68 -93.55,27.35 -93.55,27.35 0,0 31.93,-86.02 164.43,-102.34" /><path
         id="path170"
         style="fill:#ffffff;fill-opacity:1;fill-rule:nonzero;stroke:none"
         d="m 2945.15,2758.55 c 0,0 -56.67,-8.03 -91.52,-47.65 -34.86,-39.62 -51.9,-82.5 -51.9,-82.5 0,0 91.47,7.18 143.42,130.15" /><path
         id="path172"
         style="fill:#ffffff;fill-opacity:1;fill-rule:nonzero;stroke:none"
         d="m 2016.69,2832.34 c 0,0 25.22,-51.38 73.7,-72.21 48.48,-20.83 94.54,-23.73 94.54,-23.73 0,0 -35.22,84.73 -168.24,95.94" /><path
         id="path174"
         style="fill:#ffffff;fill-opacity:1;fill-rule:nonzero;stroke:none"
         d="m 2824.73,3103.11 c 0,0 -45.87,-34.23 -57.45,-85.71 -11.59,-51.47 -5.98,-97.28 -5.98,-97.28 0,0 76.83,50.17 63.43,182.99" /><path
         id="path176"
         style="fill:#ffffff;fill-opacity:1;fill-rule:nonzero;stroke:none"
         d="m 2651.7,3265.02 c 0,0 -26.05,-50.97 -13.7,-102.27 12.35,-51.3 37.61,-89.92 37.61,-89.92 0,0 46.77,78.94 -23.91,192.19" /><path
         id="path178"
         style="fill:#ffffff;fill-opacity:1;fill-rule:nonzero;stroke:none"
         d="m 2277.15,3210.59 c 0,0 0,-57.23 34.34,-97.3 34.35,-40.07 74.41,-62.96 74.41,-62.96 0,0 5.72,91.58 -108.75,160.26" /><path
         id="path180"
         style="fill:#17282f;fill-opacity:1;fill-rule:nonzero;stroke:none"
         d="M 5490.73,364.012 V 1004.91 H 2292.46 V 364.012 H 3618.31 C 3619.45,167.039 3756.24,7.76172 3924.86,7.76172 h 165.57 c 129.34,0 239.89,93.75028 284.93,226.28928 h 722.98 v 87.148 h -703.83 c 1.52,14.039 2.36,28.321 2.45,42.813 h 1093.77" /><path
         id="path182"
         style="fill:#17282f;fill-opacity:1;fill-rule:nonzero;stroke:none"
         d="m 5490.73,364.012 h 5 V 1009.91 H 2287.46 V 359.012 h 1330.85 v 5 l -5,-0.024 c 0.58,-99.636 35.45,-189.828 91.68,-255.218 56.2,-65.3911 133.94,-106.00828 219.87,-106.00828 h 165.57 C 4222.32,2.80078 4334.54,98.2891 4380.1,232.449 l -4.74,1.602 v -5 h 727.98 v 97.148 h -708.83 v -5 l 4.97,-0.527 c 1.53,14.187 2.38,28.648 2.48,43.308 l -5,0.032 v -5 h 1098.77 v 5 h -5 v 5 H 4392 l -0.04,-4.961 c -0.09,-14.321 -0.92,-28.442 -2.42,-42.309 l -0.6,-5.543 h 704.4 v -77.148 h -721.56 l -1.15,-3.391 C 4326.1,104.742 4217.21,12.7305 4090.43,12.7617 h -165.57 c -82.7,0.0078 -157.66,39.0274 -212.29,102.5273 -54.61,63.492 -88.7,151.422 -89.26,248.75 l -0.03,4.973 H 2297.46 V 999.91 H 5485.73 V 364.012 h 5 v 5 -5" /><path
         id="path184"
         style="fill:#17282f;fill-opacity:1;fill-rule:nonzero;stroke:none"
         d="m 1864.55,366.5 c 0,198.121 -137.27,358.73 -306.61,358.73 h -165.56 c -169.34,0 -306.61,-160.609 -306.61,-358.73 0,-198.129 137.27,-358.73828 306.61,-358.73828 h 165.56 c 129.35,0 239.9,93.75028 284.94,226.28928 h 722.98 v 87.148 h -703.83 c 1.6,14.852 2.52,29.942 2.52,45.301" /><path
         id="path186"
         style="fill:#17282f;fill-opacity:1;fill-rule:nonzero;stroke:none"
         d="m 1864.55,366.5 h 5 c 0,100.219 -34.71,191.031 -91,256.91 -56.27,65.86 -134.32,106.82 -220.61,106.82 h -165.56 c -86.29,0 -164.34,-40.96 -220.61,-106.82 -56.29,-65.879 -90.99,-156.691 -91,-256.91 0.01,-100.219 34.71,-191.039 91,-256.918 C 1228.04,43.7188 1306.09,2.76172 1392.38,2.76172 h 165.56 c 131.9,0.03906 244.12,95.52738 289.67,229.68728 l -4.73,1.602 v -5 h 727.98 v 97.148 h -708.83 v -5 l 4.97,-0.527 c 1.62,15 2.55,30.269 2.55,45.828 h -5 -5 c 0,-15.16 -0.91,-30.07 -2.49,-44.758 l -0.6,-5.543 h 704.4 V 239.051 H 1839.3 l -1.15,-3.391 C 1793.61,104.742 1684.73,12.7305 1557.94,12.7617 h -165.56 c -83.05,0.0078 -158.31,39.3477 -213.01,103.3203 -54.67,63.957 -88.6,152.508 -88.6,250.418 0,97.898 33.93,186.449 88.6,250.41 54.7,63.969 129.96,103.309 213.01,103.32 h 165.56 c 83.05,-0.011 158.31,-39.351 213.01,-103.32 54.67,-63.961 88.6,-152.512 88.6,-250.41 h 5" /><path
         id="path188"
         style="fill:#17282f;fill-opacity:1;fill-rule:nonzero;stroke:none"
         d="m 3045.73,366.5 c 0,126.73 -56.22,238.039 -141.04,301.852 v 56.878 h -165.56 c -169.34,0 -306.61,-160.609 -306.61,-358.73 0,-198.129 137.27,-358.73828 306.61,-358.73828 h 165.56 V 64.6406 c 84.82,63.8084 141.04,175.1214 141.04,301.8594" /><path
         id="path190"
         style="fill:#17282f;fill-opacity:1;fill-rule:nonzero;stroke:none"
         d="m 3045.73,366.5 h 5 c -0.01,128.211 -56.84,240.98 -143.03,305.852 l -3.01,-4 h 5 v 61.878 h -170.56 c -86.29,0 -164.34,-40.96 -220.61,-106.82 -56.29,-65.879 -91,-156.691 -91,-256.91 0,-100.219 34.71,-191.039 91,-256.918 C 2574.79,43.7188 2652.84,2.76172 2739.13,2.76172 h 170.56 V 64.6406 h -5 l 3.01,-4 c 86.19,64.8714 143.02,177.6404 143.03,305.8594 h -5 -5 c 0.01,-125.27 -55.6,-235.109 -139.04,-297.8594 l -2,-1.5 V 12.7617 h -160.56 c -83.05,0.0078 -158.31,39.3477 -213.01,103.3203 -54.67,63.957 -88.6,152.508 -88.6,250.418 0,97.898 33.93,186.449 88.6,250.41 54.7,63.969 129.96,103.309 213.01,103.32 h 160.56 v -54.371 l 2,-1.5 c 83.44,-62.757 139.05,-172.597 139.04,-297.859 h 5" /><path
         id="path192"
         style="fill:#ffffff;fill-opacity:1;fill-rule:nonzero;stroke:none"
         d="m 3211.3,366.5 c 0,-198.129 -137.27,-358.73828 -306.61,-358.73828 -169.33,0 -306.6,160.60928 -306.6,358.73828 0,198.121 137.27,358.73 306.6,358.73 169.34,0 306.61,-160.609 306.61,-358.73" /><path
         id="path194"
         style="fill:#17282f;fill-opacity:1;fill-rule:nonzero;stroke:none"
         d="m 3211.3,366.5 h -5 c 0.01,-97.91 -33.93,-186.461 -88.6,-250.418 C 3063,52.1094 2987.74,12.7695 2904.69,12.7617 c -83.04,0.0078 -158.3,39.3477 -213,103.3203 -54.67,63.957 -88.61,152.508 -88.6,250.418 -0.01,97.898 33.93,186.449 88.6,250.41 54.7,63.969 129.96,103.309 213,103.32 83.05,-0.011 158.31,-39.351 213.01,-103.32 54.67,-63.961 88.61,-152.512 88.6,-250.41 h 5 5 c 0,100.219 -34.7,191.031 -91,256.91 -56.27,65.86 -134.32,106.82 -220.61,106.82 -86.28,0 -164.33,-40.96 -220.6,-106.82 -56.3,-65.879 -91,-156.691 -91,-256.91 0,-100.219 34.7,-191.039 91,-256.918 56.27,-65.8632 134.32,-106.82028 220.6,-106.82028 86.29,0 164.34,40.95708 220.61,106.82028 56.3,65.879 91,156.699 91,256.918 h -5" /><path
         id="path196"
         style="fill:#17282f;fill-opacity:1;fill-rule:nonzero;stroke:none"
         d="m 3110.22,366.5 c 0,-132.809 -92.02,-240.469 -205.53,-240.469 -113.5,0 -205.52,107.66 -205.52,240.469 0,132.801 92.02,240.461 205.52,240.461 113.51,0 205.53,-107.66 205.53,-240.461" /><path
         id="path198"
         style="fill:#17282f;fill-opacity:1;fill-rule:nonzero;stroke:none"
         d="m 3110.22,366.5 h -5 c 0.01,-65.25 -22.61,-124.23 -59,-166.789 -36.4,-42.57 -86.39,-68.68 -141.53,-68.68 -55.13,0 -105.12,26.11 -141.53,68.68 -36.38,42.559 -59,101.539 -58.99,166.789 -0.01,65.242 22.61,124.219 58.99,166.781 36.41,42.571 86.4,68.68 141.53,68.68 55.14,0 105.13,-26.109 141.53,-68.68 36.39,-42.562 59.01,-101.539 59,-166.781 h 5 5 c 0,67.551 -23.39,128.809 -61.39,173.281 -37.98,44.461 -90.76,72.188 -149.14,72.18 -58.37,0.008 -111.15,-27.719 -149.13,-72.18 -38,-44.472 -61.39,-105.73 -61.39,-173.281 0,-67.559 23.39,-128.82 61.39,-173.289 37.98,-44.461 90.76,-72.191 149.13,-72.18 58.38,-0.011 111.16,27.719 149.14,72.18 38,44.469 61.39,105.73 61.39,173.289 h -5" /><path
         id="path200"
         style="fill:#afb1af;fill-opacity:1;fill-rule:nonzero;stroke:none"
         d="m 3083.81,366.5 c 0,-115.75 -80.19,-209.57 -179.12,-209.57 -98.92,0 -179.11,93.82 -179.11,209.57 0,115.742 80.19,209.559 179.11,209.559 98.93,0 179.12,-93.817 179.12,-209.559" /><path
         id="path202"
         style="fill:#17282f;fill-opacity:1;fill-rule:nonzero;stroke:none"
         d="m 3083.81,366.5 h -5 c 0,-56.719 -19.66,-107.969 -51.26,-144.941 -31.63,-36.977 -75.01,-59.618 -122.86,-59.629 -47.84,0.011 -91.22,22.652 -122.85,59.629 -31.6,36.972 -51.26,88.222 -51.26,144.941 0,56.711 19.66,107.961 51.26,144.93 31.63,36.98 75.01,59.621 122.85,59.629 47.85,-0.008 91.23,-22.649 122.86,-59.629 31.6,-36.969 51.26,-88.219 51.26,-144.93 h 5 5 c -0.01,59.02 -20.44,112.551 -53.66,151.43 -33.2,38.871 -79.38,63.129 -130.46,63.129 -51.08,0 -97.25,-24.258 -130.45,-63.129 -33.22,-38.879 -53.65,-92.41 -53.66,-151.43 0.01,-59.031 20.44,-112.559 53.66,-151.441 33.2,-38.868 79.37,-63.129 130.45,-63.129 51.08,0 97.26,24.261 130.46,63.129 33.22,38.882 53.65,92.41 53.66,151.441 h -5" /><path
         id="path204"
         style="fill:#17282f;fill-opacity:1;fill-rule:nonzero;stroke:none"
         d="m 5194.92,366.5 c 0,126.73 -56.22,238.039 -141.03,301.852 v 56.878 h -165.57 c -169.34,0 -306.61,-160.609 -306.61,-358.73 0,-198.129 137.27,-358.73828 306.61,-358.73828 h 165.57 V 64.6406 C 5138.7,128.449 5194.92,239.762 5194.92,366.5" /><path
         id="path206"
         style="fill:#17282f;fill-opacity:1;fill-rule:nonzero;stroke:none"
         d="m 5194.92,366.5 h 5 c -0.01,128.211 -56.84,240.98 -143.03,305.852 l -3,-4 h 5 v 61.878 h -170.57 c -86.29,0 -164.34,-40.96 -220.61,-106.82 -56.29,-65.879 -91,-156.691 -91,-256.91 0,-100.219 34.71,-191.039 91,-256.918 C 4723.98,43.7188 4802.03,2.76172 4888.32,2.76172 h 170.57 V 64.6406 h -5 l 3,-4 c 86.19,64.8714 143.02,177.6404 143.03,305.8594 h -5 -5 c 0.01,-125.27 -55.6,-235.109 -139.04,-297.8594 l -1.99,-1.5 V 12.7617 h -160.57 c -83.05,0.0078 -158.31,39.3477 -213.01,103.3203 -54.67,63.957 -88.61,152.508 -88.6,250.418 -0.01,97.898 33.93,186.449 88.6,250.41 54.7,63.969 129.96,103.309 213.01,103.32 h 160.57 v -54.371 l 1.99,-1.5 c 83.44,-62.757 139.05,-172.597 139.04,-297.859 h 5" /><path
         id="path208"
         style="fill:#ffffff;fill-opacity:1;fill-rule:nonzero;stroke:none"
         d="m 5360.5,366.5 c 0,-198.129 -137.28,-358.73828 -306.61,-358.73828 -169.34,0 -306.61,160.60928 -306.61,358.73828 0,198.121 137.27,358.73 306.61,358.73 169.33,0 306.61,-160.609 306.61,-358.73" /><path
         id="path210"
         style="fill:#17282f;fill-opacity:1;fill-rule:nonzero;stroke:none"
         d="m 5360.5,366.5 h -5 c 0,-97.91 -33.93,-186.461 -88.61,-250.418 -54.7,-63.9726 -129.95,-103.3125 -213,-103.3203 -83.05,0.0078 -158.31,39.3477 -213.01,103.3203 -54.67,63.957 -88.61,152.508 -88.6,250.418 -0.01,97.898 33.93,186.449 88.6,250.41 54.7,63.969 129.96,103.309 213.01,103.32 83.05,-0.011 158.3,-39.351 213,-103.32 54.68,-63.961 88.61,-152.512 88.61,-250.41 h 5 5 c -0.01,100.219 -34.71,191.031 -91.01,256.91 -56.27,65.86 -134.32,106.82 -220.6,106.82 -86.29,0 -164.34,-40.96 -220.61,-106.82 -56.3,-65.879 -91,-156.691 -91,-256.91 0,-100.219 34.7,-191.039 91,-256.918 56.27,-65.8632 134.32,-106.82028 220.61,-106.82028 86.28,0 164.33,40.95708 220.6,106.82028 56.3,65.879 91,156.699 91.01,256.918 h -5" /><path
         id="path212"
         style="fill:#17282f;fill-opacity:1;fill-rule:nonzero;stroke:none"
         d="m 5259.41,366.5 c 0,-132.809 -92.02,-240.469 -205.52,-240.469 -113.51,0 -205.53,107.66 -205.53,240.469 0,132.801 92.02,240.461 205.53,240.461 113.5,0 205.52,-107.66 205.52,-240.461" /><path
         id="path214"
         style="fill:#17282f;fill-opacity:1;fill-rule:nonzero;stroke:none"
         d="m 5259.41,366.5 h -5 c 0.01,-65.25 -22.61,-124.23 -59,-166.789 -36.4,-42.57 -86.39,-68.68 -141.52,-68.68 -55.14,0 -105.12,26.11 -141.53,68.68 -36.38,42.559 -59.01,101.539 -59,166.789 -0.01,65.242 22.62,124.219 59,166.781 36.41,42.571 86.39,68.68 141.53,68.68 55.13,0 105.12,-26.109 141.52,-68.68 36.39,-42.562 59.01,-101.539 59,-166.781 h 5 5 c 0,67.551 -23.39,128.809 -61.39,173.281 -37.98,44.461 -90.76,72.188 -149.13,72.18 -58.38,0.008 -111.15,-27.719 -149.13,-72.18 -38.01,-44.472 -61.4,-105.73 -61.4,-173.281 0,-67.559 23.39,-128.82 61.4,-173.289 37.98,-44.461 90.75,-72.191 149.13,-72.18 58.37,-0.011 111.15,27.719 149.13,72.18 38,44.469 61.39,105.73 61.39,173.289 h -5" /><path
         id="path216"
         style="fill:#afb1af;fill-opacity:1;fill-rule:nonzero;stroke:none"
         d="m 5233,366.5 c 0,-115.75 -80.19,-209.57 -179.11,-209.57 -98.93,0 -179.11,93.82 -179.11,209.57 0,115.742 80.18,209.559 179.11,209.559 98.92,0 179.11,-93.817 179.11,-209.559" /><path
         id="path218"
         style="fill:#17282f;fill-opacity:1;fill-rule:nonzero;stroke:none"
         d="m 5233,366.5 h -5 c 0,-56.719 -19.66,-107.969 -51.26,-144.941 -31.63,-36.977 -75.01,-59.618 -122.85,-59.629 -47.85,0.011 -91.23,22.652 -122.86,59.629 -31.6,36.972 -51.26,88.222 -51.25,144.941 -0.01,56.711 19.65,107.961 51.25,144.93 31.63,36.98 75.01,59.621 122.86,59.629 47.84,-0.008 91.22,-22.649 122.85,-59.629 31.6,-36.969 51.26,-88.219 51.26,-144.93 h 5 5 c -0.01,59.02 -20.44,112.551 -53.66,151.43 -33.2,38.871 -79.37,63.129 -130.45,63.129 -51.09,0 -97.26,-24.258 -130.46,-63.129 -33.22,-38.879 -53.65,-92.41 -53.65,-151.43 0,-59.031 20.43,-112.559 53.65,-151.441 33.2,-38.868 79.37,-63.129 130.46,-63.129 51.08,0 97.25,24.261 130.45,63.129 33.22,38.882 53.65,92.41 53.66,151.441 h -5" /><path
         id="path220"
         style="fill:hsl(252, 75%, 60%);fill-opacity:1;fill-rule:nonzero;stroke:none"
         d="m 2457.99,481.82 60.19,233.68 c 20.18,78.34 90.81,133.09 171.71,133.09 h 329.45 c 73.25,0 138.97,-45.039 165.38,-113.36 l 143.26,-370.5 h 840.64 v 883.86 l -114.41,160.72 H 1442.78 c -36.97,0 -73.91,-5.01 -109.05,-16.5 -36.87,-12.05 -77.57,-32.69 -102.16,-67.82 -53.66,-76.65 -53.66,-114.98 -53.66,-114.98 0,0 -313.164,-23 -389.812,-68.98 -76.657,-46 -23,-84.32 15.324,-183.971 38.324,-99.649 53.656,-137.969 53.656,-206.957 0,-68.993 -45.988,-268.282 -45.988,-268.282 h 1646.9" /><path
         id="path222"
         style="fill:#17282f;fill-opacity:1;fill-rule:nonzero;stroke:none"
         d="m 2462.84,480.57 60.18,233.68 c 19.61,76.129 88.26,129.352 166.87,129.34 h 329.45 c 71.19,0.012 135.05,-43.77 160.72,-110.168 L 3324.55,359.73 h 849.07 v 890.45 l -116.83,164.13 H 1442.78 c -37.42,0 -74.89,-5.07 -110.61,-16.74 -37.4,-12.26 -79.08,-33.2 -104.7,-69.71 -54.1,-77.27 -54.57,-116.66 -54.56,-117.85 h 5 l -0.37,4.99 c -0.05,-0.01 -78.41,-5.76 -166.44,-17.28 -44.026,-5.76 -90.459,-12.96 -130.807,-21.63 -40.391,-8.71 -74.531,-18.69 -94.77,-30.78 v 0 c -14.57,-8.75 -24.847,-17.37 -31.601,-26.58 -6.766,-9.19 -9.805,-19.07 -9.774,-29.26 0.075,-17.31 8.055,-35.19 18.618,-56.66 10.613,-21.47 24.066,-46.529 35.992,-77.54 19.168,-49.84 32.535,-84.25 41.051,-114.54 8.515,-30.3 12.261,-56.5 12.269,-90.628 0.035,-33.582 -11.414,-100.762 -22.898,-159.051 -5.742,-29.172 -11.485,-56.211 -15.789,-75.949 -4.305,-19.743 -7.168,-32.133 -7.172,-32.161 l -1.414,-6.121 H 2457.99 v 10 H 811.09 v -5 l 4.871,-1.129 c 0.008,0.039 11.516,49.899 23.031,108.43 11.508,58.617 23.055,125.57 23.086,160.981 0.012,34.859 -3.906,62.32 -12.64,93.339 -8.735,31.028 -22.192,65.598 -41.348,115.418 -12.18,31.661 -25.863,57.141 -36.36,78.381 -10.546,21.23 -17.652,38.21 -17.582,52.23 0.036,8.29 2.247,15.65 7.844,23.35 5.606,7.68 14.801,15.6 28.676,23.92 v 0 c 18.09,10.91 51.836,21.04 91.723,29.58 59.898,12.87 133.939,22.56 192.939,29.02 29.5,3.23 55.24,5.65 73.61,7.26 18.37,1.62 29.31,2.42 29.34,2.42 l 4.63,0.34 v 4.65 0 c 0.03,1.17 1.21,38.46 52.75,112.11 23.57,33.75 63.28,54.09 99.62,65.94 34.56,11.3 70.98,16.25 107.5,16.25 h 2608.85 l 111.99,-157.32 V 369.73 h -832.21 l -142.02,367.301 c -27.17,70.25 -94.73,116.559 -170.05,116.559 h -329.45 c -83.18,0 -155.8,-56.289 -176.55,-136.84 l -60.19,-233.691 9.69,-2.489" /><path
         id="path224"
         style="fill:hsl(252, 75%, 60%);fill-opacity:1;fill-rule:nonzero;stroke:none"
         d="M 4168.62,1248.59 V 363.73 h 362.52 l 28.72,118.09 60.2,233.68 c 20.17,78.34 90.81,133.09 171.71,133.09 h 329.44 c 73.25,0 138.97,-45.039 165.38,-113.36 l 135.34,-371.5 h 388.91 c 54.34,0 98.4,44.051 98.4,98.399 l -72.42,699.401 c 0,48.08 -38.98,87.06 -87.05,87.06 H 4168.62" /><path
         id="path226"
         style="fill:#17282f;fill-opacity:1;fill-rule:nonzero;stroke:none"
         d="m 4168.62,1248.59 h -5 V 358.73 h 371.45 l 29.64,121.852 60.19,233.668 c 19.61,76.129 88.25,129.352 166.87,129.34 h 329.44 c 71.19,0.012 135.05,-43.77 160.72,-110.168 l 4.66,1.808 -4.7,-1.718 136.54,-374.782 h 392.41 c 57.1,0.008 103.4,46.29 103.4,103.399 v 0.25 l -72.45,699.671 -4.97,-0.52 h 5 c -0.01,50.84 -41.21,92.05 -92.05,92.06 H 4163.62 v -5 h 5 v -5 h 1581.15 c 22.67,-0.01 43.15,-9.18 58.01,-24.04 14.86,-14.86 24.03,-35.34 24.04,-58.02 v -0.25 l 72.45,-699.671 4.97,0.52 h -5 c 0,-25.809 -10.45,-49.129 -27.36,-66.039 -16.92,-16.91 -40.24,-27.36 -66.04,-27.36 h -385.41 l -134.15,368.239 -0.02,0.062 c -27.17,70.25 -94.73,116.559 -170.05,116.559 h -329.44 c -83.18,0 -155.81,-56.289 -176.55,-136.84 l -60.2,-233.68 -27.81,-114.34 h -353.59 v 879.86 h -5 v -5 5" /><path
         id="path228"
         style="fill:#17282f;fill-opacity:1;fill-rule:nonzero;stroke:none"
         d="m 1174.09,1213.24 c 0,-0.01 -21.09,-24.93 -44.11,-52.74 -11.5,-13.9 -23.49,-28.53 -33.58,-41.14 -10.11,-12.64 -18.24,-23.15 -22.29,-29.21 -12.41,-18.78 -34.92,-54.05 -35.06,-89.12 0,-8.46 1.36,-16.928 4.61,-25.038 15.42,-38.562 30.11,-67.113 30.16,-67.203 l 1.4,-2.707 h 884.5 l 25.25,-0.352 v 5.071 c -0.07,14.48 -6.56,28.828 -11.67,38.371 -4.21,7.769 -8.19,15.668 -11.59,23.707 -11.44,27.043 -22.39,48.451 -30.36,66.351 -8,17.91 -12.88,32.21 -12.85,44.89 0.02,8.52 2.07,16.45 7.07,25.04 5,8.58 13.07,17.77 25.04,28.08 12.94,11.23 36.99,21.45 65.95,29.84 28.98,8.45 62.93,15.28 96.13,20.68 73.23,11.9 147.4,17.25 221.65,17.25 h 618.44 l -57.88,187.24 -9.55,-2.95 53.87,-174.29 h -604.88 c -74.73,0 -149.44,-5.39 -223.25,-17.38 -33.46,-5.44 -67.73,-12.33 -97.32,-20.95 -29.61,-8.67 -54.5,-18.86 -69.69,-31.87 -12.49,-10.77 -21.35,-20.68 -27.15,-30.6 -5.8,-9.91 -8.44,-19.89 -8.43,-30.09 0.04,-15.25 5.6,-30.69 13.72,-48.96 8.14,-18.28 18.99,-39.488 30.28,-66.18 3.57,-8.449 7.7,-16.621 12,-24.57 4.8,-8.781 10.53,-22.238 10.47,-33.609 h 5 l 0.06,5 -20.23,0.281 h -881.53 v -5 l 4.44,2.277 c 0,0.012 -0.89,1.731 -2.49,4.973 -4.79,9.707 -15.85,32.789 -27.28,61.367 -2.71,6.77 -3.88,13.93 -3.89,21.331 -0.13,30.74 21.08,65.28 33.38,83.57 3.61,5.43 11.76,16 21.78,28.51 15.05,18.81 34.44,42.24 50.05,60.96 7.81,9.35 14.68,17.53 19.59,23.37 4.92,5.84 7.87,9.33 7.88,9.34 l -7.64,6.46" /><path
         id="path230"
         style="fill:#ffffff;fill-opacity:1;fill-rule:nonzero;stroke:none"
         d="m 2167.16,961.422 c 0,-61.32 -30.59,-111.031 -68.32,-111.031 -37.74,0 -68.33,49.711 -68.33,111.031 0,61.318 30.59,111.018 68.33,111.018 37.73,0 68.32,-49.7 68.32,-111.018" /><path
         id="path232"
         style="fill:#17282f;fill-opacity:1;fill-rule:nonzero;stroke:none"
         d="m 2167.16,961.422 h -5 c 0.02,-29.832 -7.48,-56.774 -19.27,-75.891 -5.88,-9.57 -12.82,-17.16 -20.29,-22.289 -7.49,-5.14 -15.44,-7.844 -23.76,-7.851 -8.32,0.007 -16.28,2.711 -23.76,7.851 -11.22,7.68 -21.2,20.969 -28.28,38.02 -7.09,17.039 -11.29,37.789 -11.29,60.16 -0.01,29.816 7.49,56.758 19.27,75.878 5.89,9.57 12.82,17.17 20.3,22.3 7.48,5.13 15.44,7.84 23.76,7.84 8.32,0 16.27,-2.71 23.76,-7.84 11.21,-7.69 21.2,-20.97 28.28,-38.03 7.09,-17.04 11.29,-37.781 11.28,-60.148 h 5 5 c -0.01,31.488 -7.81,60.058 -20.75,81.128 -6.48,10.52 -14.27,19.18 -23.14,25.29 -8.87,6.1 -18.89,9.61 -29.43,9.6 -10.55,0.01 -20.57,-3.5 -29.43,-9.6 -13.31,-9.17 -24.19,-24.04 -31.84,-42.43 -7.65,-18.39 -12.05,-40.371 -12.06,-63.988 0.02,-31.5 7.81,-60.07 20.76,-81.133 6.48,-10.527 14.27,-19.187 23.14,-25.289 8.86,-6.109 18.88,-9.609 29.43,-9.609 10.54,0 20.56,3.5 29.43,9.609 13.3,9.172 24.18,24.039 31.84,42.422 7.65,18.398 12.05,40.379 12.05,64 h -5" /><path
         id="path234"
         style="fill:#17282f;fill-opacity:1;fill-rule:nonzero;stroke:none"
         d="m 2034.73,964.102 c 0,0.007 -0.83,1.296 -2.3,3.679 -5.15,8.301 -18.09,29.59 -29.67,52.169 -5.79,11.29 -11.24,22.91 -15.2,33.3 -3.97,10.36 -6.37,19.63 -6.33,25.47 -0.01,3.52 0.84,5.37 1.53,6 1.72,1.77 5.77,4.04 11.33,5.91 16.76,5.77 46.44,8.89 72.81,8.86 11.73,0 22.86,-0.6 31.94,-1.76 9.05,-1.12 16.21,-3.02 19.2,-4.79 1.26,-0.63 4.53,-3.89 8.08,-8.92 12.79,-17.73 32.23,-56.86 48.16,-98.258 16,-41.383 28.57,-85.551 28.51,-112.821 0,-1.351 -0.03,-2.652 -0.09,-3.902 -1.08,-22.039 -8.86,-36.41 -18.99,-45.578 -10.14,-9.16 -22.98,-13.109 -34.26,-13.102 -8.23,-0.019 -15.54,2.153 -20.02,5.391 l -5.81,-8.141 c 6.79,-4.808 15.92,-7.23 25.83,-7.25 13.54,0 28.73,4.661 40.95,15.672 12.24,10.989 21.17,28.34 22.29,52.528 0.07,1.429 0.1,2.89 0.1,4.382 -0.02,17.18 -4.3,38.918 -10.93,62.368 -9.96,35.132 -25.31,73.931 -40.16,105.211 -7.43,15.64 -14.73,29.39 -21.23,39.92 -3.25,5.26 -6.3,9.72 -9.14,13.26 -2.87,3.54 -5.37,6.18 -8.33,7.92 -5.44,3.03 -13.18,4.74 -22.89,6.03 -9.66,1.23 -21.14,1.84 -33.21,1.84 -18.11,0 -37.53,-1.36 -54,-4.13 -8.24,-1.39 -15.74,-3.12 -22.05,-5.27 -6.31,-2.19 -11.46,-4.67 -15.16,-8.3 -3.45,-3.52 -4.45,-8.23 -4.46,-13.07 0.06,-9.37 3.68,-20.95 8.85,-33.76 15.57,-38.19 46.15,-86.101 46.22,-86.23 l 8.43,5.372" /><path
         id="path236"
         style="fill:#ffffff;fill-opacity:1;fill-rule:nonzero;stroke:none"
         d="m 979.465,961.422 c 0,-61.32 -30.594,-111.031 -68.328,-111.031 -37.739,0 -68.324,49.711 -68.324,111.031 0,61.318 30.585,111.018 68.324,111.018 37.734,0 68.328,-49.7 68.328,-111.018" /><path
         id="path238"
         style="fill:#17282f;fill-opacity:1;fill-rule:nonzero;stroke:none"
         d="m 979.465,961.422 h -5 c 0.012,-29.832 -7.485,-56.774 -19.274,-75.891 -5.882,-9.57 -12.816,-17.16 -20.289,-22.289 -7.488,-5.14 -15.441,-7.844 -23.765,-7.851 -8.321,0.007 -16.278,2.711 -23.766,7.851 -11.211,7.68 -21.195,20.969 -28.273,38.02 -7.09,17.039 -11.289,37.789 -11.285,60.16 -0.012,29.816 7.484,56.758 19.269,75.878 5.883,9.57 12.816,17.17 20.289,22.3 7.488,5.13 15.445,7.84 23.766,7.84 8.324,0 16.277,-2.71 23.765,-7.84 11.211,-7.69 21.196,-20.97 28.274,-38.03 7.09,-17.04 11.289,-37.781 11.289,-60.148 h 5 5 c -0.016,31.488 -7.813,60.058 -20.754,81.128 -6.481,10.52 -14.27,19.18 -23.145,25.29 -8.863,6.1 -18.882,9.61 -29.429,9.6 -10.547,0.01 -20.567,-3.5 -29.426,-9.6 -13.313,-9.17 -24.191,-24.04 -31.848,-42.43 -7.644,-18.4 -12.047,-40.371 -12.05,-63.988 0.011,-31.492 7.812,-60.07 20.753,-81.133 6.481,-10.527 14.266,-19.187 23.145,-25.289 8.859,-6.109 18.879,-9.609 29.426,-9.609 10.547,0 20.566,3.5 29.429,9.609 13.309,9.172 24.188,24.039 31.844,42.422 7.645,18.398 12.051,40.379 12.055,64 h -5" /><path
         id="path240"
         style="fill:#17282f;fill-opacity:1;fill-rule:nonzero;stroke:none"
         d="m 847.027,964.102 c 0,0.007 -0.828,1.296 -2.297,3.679 -5.156,8.301 -18.089,29.59 -29.671,52.179 -5.793,11.28 -11.243,22.9 -15.204,33.29 -3.972,10.36 -6.367,19.64 -6.328,25.47 -0.011,3.52 0.836,5.37 1.532,6 1.714,1.77 5.761,4.04 11.324,5.91 16.762,5.77 46.445,8.89 72.812,8.86 11.735,0 22.86,-0.6 31.946,-1.76 9.05,-1.12 16.214,-3.02 19.195,-4.79 v 0 c 1.262,-0.63 4.535,-3.89 8.086,-8.92 12.781,-17.73 32.223,-56.86 48.156,-98.258 16.002,-41.383 28.572,-85.551 28.512,-112.821 0,-1.351 -0.03,-2.652 -0.09,-3.902 -1.08,-22.039 -8.86,-36.41 -18.992,-45.578 -10.141,-9.16 -22.977,-13.109 -34.258,-13.102 -8.23,-0.019 -15.535,2.153 -20.016,5.391 l -5.812,-8.141 c 6.789,-4.808 15.918,-7.23 25.828,-7.25 13.543,0 28.727,4.661 40.95,15.672 12.24,10.989 21.17,28.34 22.29,52.528 0.07,1.429 0.1,2.89 0.1,4.382 -0.02,17.18 -4.3,38.918 -10.93,62.368 -9.97,35.132 -25.312,73.931 -40.16,105.211 -7.43,15.64 -14.727,29.39 -21.227,39.92 -3.253,5.26 -6.304,9.72 -9.14,13.26 -2.875,3.54 -5.375,6.18 -8.332,7.92 h -0.004 c -5.434,3.03 -13.176,4.74 -22.883,6.03 -9.668,1.23 -21.144,1.84 -33.219,1.84 -18.113,0 -37.531,-1.36 -54,-4.13 -8.238,-1.39 -15.734,-3.12 -22.047,-5.27 -6.312,-2.19 -11.46,-4.67 -15.16,-8.3 -3.457,-3.52 -4.449,-8.23 -4.461,-13.07 0.059,-9.37 3.68,-20.95 8.852,-33.76 15.566,-38.19 46.148,-86.101 46.219,-86.23 l 8.429,5.372" /><path
         id="path242"
         style="fill:#17282f;fill-opacity:1;fill-rule:nonzero;stroke:none"
         d="m 1259.96,571.172 h 176.1 l -40.7,264.508 h -176.09 l 40.69,-264.508" /><path
         id="path244"
         style="fill:#17282f;fill-opacity:1;fill-rule:nonzero;stroke:none"
         d="m 1259.96,571.172 v -5 h 181.93 l -42.24,274.508 h -186.21 l 42.23,-274.508 h 4.29 v 5 l 4.94,0.758 -39.8,258.75 h 165.97 l 39.16,-254.508 h -170.27 v -5 l 4.94,0.758 -4.94,-0.758" /><path
         id="path246"
         style="fill:#17282f;fill-opacity:1;fill-rule:nonzero;stroke:none"
         d="m 1601.81,835.68 h -176.1 l 40.7,-264.508 h 176.09 l -40.69,264.508" /><path
         id="path248"
         style="fill:#17282f;fill-opacity:1;fill-rule:nonzero;stroke:none"
         d="m 1601.81,835.68 v 5 h -181.93 l 42.24,-274.508 h 186.21 L 1606.1,840.68 h -4.29 v -5 l -4.94,-0.758 39.81,-258.75 H 1470.7 l -39.16,254.519 170.27,-0.011 v 5 l -4.94,-0.758 4.94,0.758" /><path
         id="path250"
         style="fill:#17282f;fill-opacity:1;fill-rule:nonzero;stroke:none"
         d="m 1188.92,835.68 h -54.48 c -27.35,0 -51.21,-18.52 -57.99,-45.008 l -37.04,-144.813 c -9.69,-37.847 18.91,-74.687 57.98,-74.687 h 132.22 l -40.69,264.508" /><path
         id="path252"
         style="fill:#17282f;fill-opacity:1;fill-rule:nonzero;stroke:none"
         d="m 1188.92,835.68 v 5 h -54.48 c -29.63,0 -55.49,-20.071 -62.83,-48.782 l -37.04,-144.796 c -1.4,-5.442 -2.06,-10.872 -2.06,-16.204 0,-17.378 7.05,-33.546 18.67,-45.378 11.61,-11.829 27.89,-19.348 46.21,-19.348 h 138.05 l -42.23,274.508 h -4.29 v -5 l -4.95,-0.758 39.81,-258.75 h -126.39 c -15.56,0.008 -29.21,6.328 -39.08,16.359 -9.85,10.028 -15.8,23.719 -15.8,38.367 0,4.5 0.56,9.09 1.74,13.723 l 37.04,144.809 c 6.21,24.281 28.09,41.261 53.15,41.25 h 54.48 v 5 l -4.95,-0.758 4.95,0.758" /><path
         id="path254"
         style="fill:#17282f;fill-opacity:1;fill-rule:nonzero;stroke:none"
         d="m 1808.26,835.68 h -176.1 l 40.7,-264.508 h 176.1 l -40.7,264.508" /><path
         id="path256"
         style="fill:#17282f;fill-opacity:1;fill-rule:nonzero;stroke:none"
         d="m 1808.26,835.68 v 5 h -181.92 l 42.23,-274.508 h 186.21 l -42.23,274.508 h -4.29 v -5 l -4.94,-0.758 39.81,-258.75 h -165.98 l -39.16,254.519 170.27,-0.011 v 5 l -4.94,-0.758 4.94,0.758" /><path
         id="path258"
         style="fill:#17282f;fill-opacity:1;fill-rule:nonzero;stroke:none"
         d="m 2047.91,650.34 -49.37,144.812 c -8.26,24.239 -31.03,40.528 -56.65,40.528 h -103.28 l 40.7,-264.508 h 111.95 c 41.03,0 69.89,40.34 56.65,79.168" /><path
         id="path260"
         style="fill:#17282f;fill-opacity:1;fill-rule:nonzero;stroke:none"
         d="m 2047.91,650.34 4.73,1.621 -49.36,144.801 c -8.96,26.258 -33.63,43.918 -61.39,43.918 h -109.1 l 42.23,-274.508 h 116.24 c 18.47,0 34.77,7.598 46.34,19.476 11.58,11.872 18.56,28.043 18.56,45.293 0,6.918 -1.13,14.008 -3.52,21.02 l -4.73,-1.621 -4.73,-1.61 c 2.03,-5.968 2.98,-11.949 2.98,-17.789 0,-14.531 -5.89,-28.242 -15.72,-38.312 -9.83,-10.059 -23.48,-16.449 -39.18,-16.457 H 1883.6 l -39.16,254.508 h 97.45 c 23.48,0.011 44.35,-14.93 51.92,-37.149 l 49.37,-144.801 4.73,1.61" /><path
         id="path262"
         style="fill:#afb1af;fill-opacity:1;fill-rule:nonzero;stroke:none"
         d="m 2493.17,466.422 c -4.74,36.957 -44.36,66.098 -64.99,78.949 h -649.9 -323.8 -649.906 c -20.633,-12.851 -60.242,-41.992 -64.988,-78.949 -6.449,-50.262 12.898,-93.32 51.609,-114.863 h 663.285 323.8 663.28 c 38.71,21.543 58.06,64.601 51.61,114.863" /><path
         id="path264"
         style="fill:#17282f;fill-opacity:1;fill-rule:nonzero;stroke:none"
         d="m 2493.17,466.422 4.96,0.629 c -2.61,20.109 -14.43,37.418 -27.9,51.359 -13.51,13.961 -28.87,24.641 -39.4,31.211 l -1.22,0.75 h -651.33 -323.8 -651.335 l -1.211,-0.75 c -10.539,-6.57 -25.895,-17.25 -39.407,-31.211 -13.468,-13.941 -25.285,-31.25 -27.902,-51.359 v 0 c -0.844,-6.582 -1.262,-13.063 -1.262,-19.399 -0.062,-43.562 19.91,-80.761 55.403,-100.461 l 1.132,-0.632 h 664.582 323.8 664.58 l 1.13,0.632 c 35.49,19.7 55.47,56.899 55.41,100.461 0,6.336 -0.42,12.817 -1.27,19.399 l -4.96,-0.629 -4.96,-0.641 c 0.8,-6.179 1.19,-12.23 1.19,-18.129 -0.07,-40.601 -18.18,-73.82 -50.27,-91.722 l 2.43,-4.371 v 5 h -663.28 -323.8 -663.285 v -5 l 2.434,4.371 c -32.098,17.902 -50.203,51.121 -50.266,91.722 0,5.899 0.387,11.95 1.18,18.129 2.129,16.86 12.492,32.598 25.172,45.68 12.64,13.07 27.406,23.391 37.504,29.668 l -2.645,4.242 v -5 h 649.906 323.8 649.9 v 5 l -2.64,-4.242 c 10.09,-6.277 24.86,-16.598 37.5,-29.668 12.68,-13.082 23.05,-28.82 25.17,-45.68 l 4.96,0.641" /><path
         id="path266"
         style="fill:#17282f;fill-opacity:1;fill-rule:nonzero;stroke:none"
         d="m 3087.18,1209.61 h 1028.5 v 10 h -1028.5 z" /><path
         id="path268"
         style="fill:hsl(252, 75%, 60%);fill-opacity:1;fill-rule:nonzero;stroke:none"
         d="m 4054.21,1409.31 -138.04,508.31 c -13.4,49.32 -38.77,94.58 -73.86,131.73 -40.61,43 -95.62,69.56 -154.54,74.61 l -128.93,11.05 c -503.97,18.58 -933.69,-4.17 -1231.32,-45.58 h -0.01 c -1.97,-0.39 -8.45,-3.12 -19.36,-9.56 -50.7,-29.98 -89.14,-76.97 -110.13,-132 l -203.55,-533.43 2059.74,-5.13" /><path
         id="path270"
         style="fill:#17282f;fill-opacity:1;fill-rule:nonzero;stroke:none"
         d="m 4054.21,1409.31 4.82,1.31 -138.04,508.31 c -13.61,50.12 -39.39,96.1 -75.05,133.86 -41.44,43.89 -97.6,70.99 -157.74,76.15 L 3559.14,2140 h -0.12 c -121.34,4.48 -238.39,6.56 -350.32,6.56 -353.21,-0.01 -655.57,-20.7 -881.87,-52.18 l 0.69,-4.95 v 5 h -0.01 -0.48 l -0.47,-0.1 c -1.96,-0.42 -4.05,-1.27 -7.52,-2.89 -3.41,-1.62 -7.87,-3.98 -13.43,-7.27 -51.73,-30.58 -90.88,-78.48 -112.26,-134.52 l -206.13,-540.19 2073.53,-5.17 -1.72,6.33 -4.82,-1.31 0.01,5 -2052.49,5.12 200.96,526.66 c 20.61,54.02 58.33,100.11 108.01,129.48 5.34,3.15 9.57,5.38 12.63,6.83 2.98,1.45 5.12,2.15 5.14,2.12 l -0.96,4.91 v -5 h 0.01 0.35 l 0.34,0.04 c 225.7,31.41 527.68,52.09 880.49,52.09 111.81,0 228.73,-2.08 349.95,-6.55 l 0.19,5 -0.43,-4.99 128.93,-11.05 c 57.7,-4.94 111.57,-30.95 151.33,-73.05 34.53,-36.56 59.49,-81.08 72.67,-129.61 l 138.04,-508.31 4.83,1.31 0.01,5 -0.01,-5" /><path
         id="path272"
         style="fill:#17282f;fill-opacity:1;fill-rule:nonzero;stroke:none"
         d="m 2073.86,1535.21 174.6,445.65 c 14.18,36.2 45.23,59.43 79.42,59.43 l 156.16,10.43 c 100.21,6.7 200.73,7.23 301,1.59 l 213.35,-12.02 c 63.19,0 119.68,-45.84 141.53,-114.82 l 103.72,-327.6 c 15.9,-50.21 4.14,-106.62 -29.76,-142.78 -24.56,-26.2 -57.72,-38.51 -90.78,-33.62 -114.84,16.98 -397.87,54.48 -613.7,47.3 -152.74,-5.08 -283.85,-21.34 -370.81,-34.93 -48.36,-7.56 -84.97,49.71 -64.73,101.37" /><path
         id="path274"
         style="fill:#17282f;fill-opacity:1;fill-rule:nonzero;stroke:none"
         d="m 2073.86,1535.21 4.65,-1.83 174.6,445.65 c 13.59,34.6 42.93,56.27 74.77,56.26 h 0.17 l 156.33,10.45 c 54.27,3.62 108.63,5.44 163,5.44 45.81,0 91.62,-1.29 137.38,-3.87 l 213.49,-12.02 h 0.14 c 60.66,0.02 115.42,-44.06 136.76,-111.33 l 103.73,-327.6 c 4.54,-14.36 6.75,-29.27 6.75,-44.05 0.01,-35.12 -12.51,-69.4 -35.4,-93.8 -20.18,-21.51 -46.16,-33.09 -72.87,-33.09 -4.49,0 -9.01,0.33 -13.53,0.99 -105.13,15.54 -350.83,48.26 -557.61,48.26 -19.39,0 -38.43,-0.28 -56.98,-0.9 -153,-5.09 -284.31,-21.37 -371.42,-34.99 -2.66,-0.42 -5.27,-0.62 -7.83,-0.62 -15.82,0.01 -29.86,7.6 -40.19,19.9 -10.3,12.28 -16.64,29.2 -16.63,47.16 0,9.26 1.67,18.8 5.34,28.16 l -4.65,1.83 -4.66,1.82 c -4.13,-10.55 -6.03,-21.34 -6.03,-31.81 0.01,-20.3 7.1,-39.4 18.97,-53.58 11.84,-14.18 28.71,-23.48 47.85,-23.48 3.08,0 6.21,0.24 9.38,0.74 86.79,13.57 217.71,29.8 370.2,34.87 18.43,0.62 37.36,0.9 56.65,0.9 205.78,0.01 451.28,-32.64 556.15,-48.15 5,-0.74 10.01,-1.1 14.99,-1.1 29.64,-0.01 58.3,12.91 80.16,36.25 24.84,26.51 38.1,63.18 38.11,100.64 0,15.77 -2.35,31.69 -7.22,47.07 l -103.73,327.59 c -22.35,70.71 -80.57,118.29 -146.29,118.32 v -5 l 0.28,4.99 -213.35,12.02 c -45.94,2.58 -91.94,3.88 -137.94,3.88 -54.59,0 -109.18,-1.82 -163.67,-5.47 l -156.16,-10.43 0.33,-4.99 v 5 c -36.55,-0.01 -69.3,-24.81 -84.08,-62.61 l -174.6,-445.65 4.66,-1.82" /><path
         id="path276"
         style="fill:#ffffff;fill-opacity:1;fill-rule:nonzero;stroke:none"
         d="m 3139.92,1925.47 c -17.63,55.66 -57.83,96.22 -105.89,109.81 l -781.17,-585.87 c 73.27,8.58 160.63,16.18 256.54,19.36 95.88,3.19 205,-2.44 306.76,-11.17 l 379.93,290.46 -56.17,177.41" /><path
         id="path278"
         style="fill:#17282f;fill-opacity:1;fill-rule:nonzero;stroke:none"
         d="m 3139.92,1925.47 4.76,1.5 c -18.06,57.08 -59.4,99 -109.29,113.13 l -2.38,0.67 -797.98,-598.49 18.41,2.16 c 73.16,8.57 160.38,16.16 256.13,19.33 18.44,0.62 37.38,0.9 56.66,0.9 80.68,0.01 167.48,-5.01 249.5,-12.05 l 1.93,-0.17 384.26,293.77 -57.24,180.75 -4.76,-1.5 -4.77,-1.51 55.11,-174.06 -377.13,-288.33 3.03,-3.97 0.43,4.98 c -82.23,7.05 -169.27,12.09 -250.36,12.09 -19.38,0 -38.43,-0.28 -56.99,-0.9 -96.08,-3.19 -183.57,-10.8 -256.97,-19.4 l 0.59,-4.96 3,-4 781.17,585.87 -3,4 -1.36,-4.81 c 46.23,-13.06 85.29,-52.25 102.48,-106.51 l 4.77,1.51" /><path
         id="path280"
         style="fill:#ffffff;fill-opacity:1;fill-rule:nonzero;stroke:none"
         d="m 2133.09,1686.39 483.34,369.52 c -44.16,-0.56 -88.3,-2.24 -132.39,-5.19 l -121.91,-8.14 -129.24,-101.48 -99.8,-254.71" /><path
         id="path282"
         style="fill:#17282f;fill-opacity:1;fill-rule:nonzero;stroke:none"
         d="m 2133.09,1686.39 3.03,-3.97 495.33,378.68 -15.08,-0.19 c -44.25,-0.56 -88.48,-2.24 -132.66,-5.2 l -123.45,-8.24 -131.53,-103.27 -106.83,-272.66 14.22,10.88 -3.03,3.97 4.65,-1.83 99.3,253.45 126.97,99.68 120.37,8.05 c 43.98,2.94 88.04,4.61 132.11,5.17 l -0.06,5 -3.04,3.97 -483.34,-369.52 3.04,-3.97 4.65,-1.83 -4.65,1.83" /><path
         id="path284"
         style="fill:#17282f;fill-opacity:1;fill-rule:nonzero;stroke:none"
         d="m 3752.65,2032.36 h -376.48 c -36.96,0 -71.77,-17.4 -93.94,-46.96 -22.65,-30.2 -29.4,-69.45 -18.14,-105.48 l 112.08,-358.64 c 16.91,-54.13 67.04,-91 123.76,-91 h 410.67 c 36.19,0 62.26,34.71 52.2,69.47 l -138.61,478.85 c -9.22,31.85 -38.38,53.76 -71.54,53.76" /><path
         id="path286"
         style="fill:#17282f;fill-opacity:1;fill-rule:nonzero;stroke:none"
         d="m 3752.65,2032.36 v 5 h -376.48 c -38.54,0 -74.82,-18.14 -97.94,-48.96 -16.09,-21.46 -24.49,-47.3 -24.48,-73.46 0,-12.24 1.83,-24.55 5.57,-36.51 l 112.07,-358.64 c 17.57,-56.22 69.63,-94.5 128.54,-94.51 h 410.67 c 16.82,0 31.73,6.91 42.34,17.76 10.61,10.84 17.04,25.64 17.04,41.5 0,5.46 -0.77,11.04 -2.37,16.6 l -138.62,478.85 c -9.84,33.98 -40.96,57.37 -76.34,57.37 v -5 -5 c 30.93,0.01 58.14,-20.44 66.74,-50.15 L 3958,1498.36 c 1.35,-4.66 1.98,-9.29 1.98,-13.82 0,-13.14 -5.33,-25.47 -14.19,-34.5 -8.86,-9.04 -21.14,-14.75 -35.19,-14.76 h -410.67 c -54.53,0 -102.73,35.45 -118.99,87.49 l -112.08,358.64 c -3.43,10.99 -5.11,22.29 -5.11,33.53 0,24.03 7.7,47.75 22.48,67.46 21.23,28.3 54.55,44.96 89.94,44.96 h 376.48 v 5" /><path
         id="path288"
         style="fill:#ffffff;fill-opacity:1;fill-rule:nonzero;stroke:none"
         d="m 3864.72,1838.58 -462.86,-363.39 c 24.11,-27.86 59.55,-44.91 98.07,-44.91 h 70.95 l 337.37,257.93 -43.53,150.37" /><path
         id="path290"
         style="fill:#17282f;fill-opacity:1;fill-rule:nonzero;stroke:none"
         d="m 3864.72,1838.58 -3.09,3.93 -466.98,-366.63 3.43,-3.96 c 25.03,-28.93 61.84,-46.63 101.85,-46.64 h 72.65 l 341.42,261.04 -46.54,160.77 -5.83,-4.58 3.09,-3.93 -4.8,-1.39 42.57,-147.08 -333.3,-254.83 h -69.26 c -37.03,0 -71.1,16.39 -94.29,43.18 l -3.78,-3.27 3.09,-3.94 462.86,363.39 -3.09,3.94 -4.8,-1.39 4.8,1.39" /><path
         id="path292"
         style="fill:#afb1af;fill-opacity:1;fill-rule:nonzero;stroke:none"
         d="m 5895.77,634.25 h -75.87 c 0,0 2.49,-215.418 -60.12,-269.508 h 143.11 c 0,0 46.05,9.258 69.04,65.297 l 0.19,0.461 c 9.25,22.801 9.73,48.219 3.45,72 l -31.54,119.492 c 0.24,6.637 -5.06,12.149 -11.71,12.168 l -36.55,0.09" /><path
         id="path294"
         style="fill:#17282f;fill-opacity:1;fill-rule:nonzero;stroke:none"
         d="m 5895.77,634.25 v 5 h -80.92 l 0.05,-5.059 c 0,0 0.02,-1.132 0.02,-3.3 0,-13.621 -0.54,-67.469 -8.28,-123.922 -3.86,-28.219 -9.53,-57.09 -17.74,-81.797 -8.18,-24.723 -19.03,-45.172 -32.39,-56.652 l -10.17,-8.778 h 157.05 l 0.49,0.098 c 0.43,0.09 12.53,2.558 27.63,12.34 15.09,9.75 33.15,26.929 45.05,55.961 l 0.01,0.031 0.18,0.457 c 5.48,13.492 8.01,27.82 8.01,42.172 0,11.097 -1.52,22.211 -4.36,32.98 l -31.53,119.489 -4.84,-1.278 5,-0.172 0.01,0.602 c 0,9.199 -7.44,16.707 -16.7,16.738 l -36.56,0.09 -0.01,-5 -0.01,-5 36.55,-0.09 c 3.73,0 6.73,-3.039 6.73,-6.738 v -0.25 l -0.03,-0.742 31.72,-120.2 c 2.64,-9.98 4.03,-20.238 4.03,-30.429 0,-13.172 -2.32,-26.211 -7.27,-38.422 l -0.19,-0.469 0.01,0.031 c -11.1,-27.011 -27.56,-42.492 -41.24,-51.371 -6.84,-4.429 -12.99,-7.191 -17.37,-8.828 -2.19,-0.812 -3.95,-1.351 -5.13,-1.683 l -1.31,-0.34 -0.31,-0.071 -0.04,-0.007 0.98,-4.899 v 5 h -143.11 v -5 l 3.26,-3.793 c 15.64,13.582 26.81,35.492 35.35,61.071 25.42,76.691 26.49,187.98 26.53,208.871 0,2.211 -0.02,3.398 -0.02,3.418 l -5,-0.059 v -5 h 75.87 v 5" /><path
         id="path296"
         style="fill:#17282f;fill-opacity:1;fill-rule:nonzero;stroke:none"
         d="m 3276.56,2048.9 c -0.28,-0.16 -18.23,-9.95 -36.35,-28.88 -18.08,-18.88 -36.51,-47.21 -36.52,-84.09 0.02,-9.54 2.21,-23.21 5.95,-40.36 13.09,-59.85 45.57,-161.24 74.82,-247.89 29.23,-86.62 55.22,-158.36 55.22,-158.39 l 4.7,1.71 -4.85,-1.21 1.37,0.34 -1.38,-0.31 0.01,-0.03 1.37,0.34 -1.38,-0.31 c 0.03,-0.13 0.39,-1.78 0.39,-4.78 -0.03,-8.55 -2.77,-28.09 -24.92,-54.71 -7.17,-8.64 -18.43,-15.52 -31.45,-20.71 -19.5,-7.82 -42.73,-11.84 -60.99,-13.82 -9.14,-1 -17.03,-1.49 -22.63,-1.74 -2.8,-0.13 -5.02,-0.19 -6.54,-0.22 -1.51,-0.03 -2.29,-0.03 -2.29,-0.03 h -5.51 l 18.49,-190.2 3.64,-0.73 0.28,1.39 -0.3,-1.38 0.02,-0.01 0.28,1.39 -0.3,-1.38 c 0.3,-0.07 15.38,-3.35 32.7,-20.28 17.31,-16.94 37.09,-47.65 46.41,-103.4 9.49,-56.89 20.71,-215.159 29.48,-358.769 4.39,-71.832 8.18,-140.089 10.87,-190.382 1.35,-25.137 2.42,-45.797 3.16,-60.161 0.73,-14.367 1.13,-22.429 1.13,-22.449 l 0.24,-4.75 h 782.62 v 708.711 l -51.57,109.6 -4.53,-2.13 4.91,0.98 c -0.03,0.11 -4.85,24.2 -13.73,51.66 -4.44,13.73 -9.9,28.3 -16.35,41.21 -6.49,12.91 -13.86,24.2 -22.81,31.41 l -6.24,-7.81 c 7.01,-5.56 14.01,-15.83 20.1,-28.07 9.19,-18.36 16.56,-41.05 21.56,-59.06 2.5,-9.01 4.42,-16.85 5.71,-22.44 1.29,-5.58 1.95,-8.85 1.95,-8.86 l 0.12,-0.6 50.88,-108.12 V 452.699 h -767.86 v -5 l 4.99,0.242 c 0,0.008 -6.39,129.368 -15.17,273.11 -8.8,143.82 -19.94,301.719 -29.6,359.799 -9.7,58.33 -30.96,91.42 -50.18,109.78 -19.21,18.38 -36.14,21.93 -36.81,22.06 l -0.98,-4.91 4.98,0.49 -17.6,181.02 -4.98,-0.48 v -5 c 0.17,0 24.34,0 52.74,4.86 14.21,2.44 29.48,6.09 43.43,11.66 13.93,5.59 26.62,13.08 35.41,23.6 23.49,28.13 27.26,50.3 27.24,61.11 0,4.32 -0.59,6.82 -0.67,7.17 l -0.07,0.25 -0.08,0.24 c -0.01,0.02 -2.12,5.84 -5.83,16.22 -12.97,36.31 -45.43,128.08 -74.62,218.4 -14.59,45.15 -28.37,89.95 -38.48,127.22 -10.13,37.17 -16.52,67.22 -16.47,81.39 -0.01,33.38 16.69,59.34 33.74,77.18 8.51,8.9 17.06,15.7 23.44,20.24 3.2,2.28 5.85,3.99 7.69,5.12 0.92,0.57 1.63,0.99 2.11,1.27 l 0.67,0.38 -4.78,8.78" /><path
         id="path298"
         style="fill:#ffffff;fill-opacity:1;fill-rule:nonzero;stroke:none"
         d="M 4039.03,1258.88 H 3860.2 c -10.59,0 -19.17,8.58 -19.17,19.16 0,10.58 8.58,19.16 19.17,19.16 h 178.83 c 10.59,0 19.17,-8.58 19.17,-19.16 0,-10.58 -8.58,-19.16 -19.17,-19.16" /><path
         id="path300"
         style="fill:#17282f;fill-opacity:1;fill-rule:nonzero;stroke:none"
         d="m 4039.03,1258.88 v 5 H 3860.2 c -7.83,0.01 -14.16,6.35 -14.17,14.16 0.01,7.82 6.34,14.14 14.17,14.16 h 178.83 c 7.83,-0.02 14.16,-6.34 14.17,-14.16 -0.01,-7.81 -6.34,-14.15 -14.17,-14.16 v -5 -5 c 13.35,0 24.17,10.82 24.17,24.16 0,13.35 -10.82,24.16 -24.17,24.16 H 3860.2 c -13.35,0 -24.17,-10.81 -24.17,-24.16 0,-13.34 10.82,-24.16 24.17,-24.16 h 178.83 v 5" /><path
         id="path302"
         style="fill:#ffffff;fill-opacity:1;fill-rule:nonzero;stroke:none"
         d="m 3222.5,983.949 h -489.83 l -58.71,-17.988 c -8.51,-2.609 -8.3,-14.723 0.28,-17.039 l 58.43,-15.793 h 489.83 c 10.58,0 19.16,8.582 19.16,19.16 v 12.5 c 0,10.57 -8.58,19.16 -19.16,19.16" /><path
         id="path304"
         style="fill:#17282f;fill-opacity:1;fill-rule:nonzero;stroke:none"
         d="m 3222.5,983.949 v 5 h -490.58 l -59.42,-18.207 c -3.14,-0.953 -5.71,-2.902 -7.36,-5.312 -1.66,-2.399 -2.45,-5.192 -2.45,-7.942 0,-2.84 0.84,-5.687 2.57,-8.136 1.73,-2.442 4.42,-4.391 7.68,-5.262 l 59.07,-15.961 h 490.49 c 13.35,0 24.16,10.82 24.16,24.16 v 12.5 c 0,13.34 -10.81,24.152 -24.16,24.16 v -5 -5 c 7.82,-0.019 14.15,-6.347 14.16,-14.16 v -12.5 c -0.01,-7.82 -6.34,-14.148 -14.16,-14.16 h -489.16 l -57.79,15.609 c -1.1,0.321 -1.68,0.801 -2.14,1.422 l -0.72,2.328 0.68,2.254 c 0.44,0.617 1,1.098 2.06,1.438 l 57.99,17.769 h 489.08 v 5" /><path
         id="path306"
         style="fill:#ffffff;fill-opacity:1;fill-rule:nonzero;stroke:none"
         d="m 1208.76,1179.96 h 424.12 c 0,0 -29.2,-38.33 -46.24,-38.33 -17.04,0 -68.14,0 -68.14,0 l -30.61,-38.26 c -12.96,-16.19 -32.57,-25.62 -53.31,-25.62 h -71.6 c -27.12,0 -51.67,16.05 -62.55,40.9 l -11.91,27.24 h -23.38 c -19.62,0 -38.07,9.31 -49.73,25.09 l -6.65,8.98" /><path
         id="path308"
         style="fill:#17282f;fill-opacity:1;fill-rule:nonzero;stroke:none"
         d="m 1208.76,1179.96 v -5 h 424.12 v 5 l -3.98,3.03 c 0,0 -0.41,-0.55 -1.22,-1.57 -2.83,-3.56 -10.24,-12.6 -18.61,-20.58 -4.17,-3.99 -8.59,-7.7 -12.64,-10.3 -4.03,-2.64 -7.72,-3.97 -9.79,-3.91 -8.52,0 -25.55,0 -40.46,0 -14.91,0 -27.66,0 -27.68,0 h -2.41 l -32.1,-40.14 c -12.01,-15 -30.19,-23.74 -49.41,-23.74 h -71.6 c -25.13,0 -47.89,14.87 -57.96,37.91 l -13.23,30.23 h -26.65 c -18.03,0 -35,8.55 -45.71,23.06 l -6.65,8.99 -4.02,-2.98 v -5 5 l -4.02,-2.97 6.65,-8.99 c 12.6,-17.05 32.55,-27.11 53.75,-27.11 h 20.11 l 10.6,-24.24 c 11.67,-26.67 38.02,-43.9 67.13,-43.9 h 71.6 c 22.26,0 43.31,10.12 57.21,27.5 l 30.61,38.26 -3.9,3.12 v -5 c 0.02,0 12.77,0 27.68,0 14.91,0 31.94,0 40.46,0 6.15,0.09 11.73,3.08 17.28,6.9 16.42,11.57 32.76,33.23 32.94,33.4 l 6.12,8.03 h -444.14 l 5.9,-7.97 4.02,2.97" /><path
         id="path310"
         style="fill:#17282f;fill-opacity:1;fill-rule:nonzero;stroke:none"
         d="m 1319.17,1150.59 h 155.61 c 0,0 -10.74,-40.24 -32.2,-48.28 -21.46,-8.06 -96.58,0 -96.58,0 0,0 -29.51,13.4 -26.83,48.28" /><path
         id="path312"
         style="fill:#17282f;fill-opacity:1;fill-rule:nonzero;stroke:none"
         d="m 1319.17,1150.59 v -5 h 155.61 v 5 l -4.84,1.29 c 0,-0.01 -0.14,-0.54 -0.46,-1.6 -1.11,-3.7 -4.26,-13.32 -9.29,-22.62 -4.98,-9.36 -12,-18.04 -19.36,-20.67 -2.83,-1.08 -7.6,-1.98 -13.32,-2.5 -5.73,-0.54 -12.46,-0.77 -19.51,-0.76 -14.1,-0.01 -29.51,0.88 -41.35,1.77 -11.85,0.89 -20.1,1.78 -20.12,1.78 l -0.53,-4.97 2.07,4.55 h -0.01 c -0.42,0.19 -6.64,3.24 -12.53,9.6 -5.9,6.4 -11.5,15.82 -11.53,29.7 0,1.3 0.05,2.65 0.16,4.04 l -4.99,0.39 v -5 5 l -4.98,0.38 c -0.13,-1.64 -0.19,-3.25 -0.19,-4.81 -0.02,-17.27 7.5,-29.6 14.9,-37.24 7.41,-7.68 14.67,-10.99 15.03,-11.17 l 0.74,-0.33 0.8,-0.09 c 0.09,0 33.53,-3.6 62.53,-3.6 7.26,0 14.25,0.22 20.44,0.8 6.21,0.6 11.57,1.49 15.9,3.09 6.53,2.47 11.81,7.13 16.19,12.45 13.02,16 18.94,38.93 19.08,39.23 l 1.67,6.29 h -166.73 l -0.36,-4.62 4.98,-0.38" /><path
         id="path314"
         style="fill:#ffffff;fill-opacity:1;fill-rule:nonzero;stroke:none"
         d="m 2230.23,401.352 c -323.56,-24.891 -516.45,49.769 -1020.45,49.769 -262.077,0 -392.885,-30.281 -458.12,-59.351 8.988,-16.809 22.344,-30.641 39.535,-40.211 h 663.285 323.8 663.28 c 28.49,15.851 46.45,43.39 51.4,76.851 -62.89,-8.699 -148.37,-18.269 -262.73,-27.058" /><path
         id="path316"
         style="fill:#17282f;fill-opacity:1;fill-rule:nonzero;stroke:none"
         d="m 2230.23,401.352 -0.38,4.98 c -46.1,-3.543 -89.52,-5.062 -131.59,-5.062 -252.21,-0.04 -456.02,54.839 -888.48,54.851 C 947.316,456.102 815.953,425.859 749.625,396.34 l -4.906,-2.192 2.531,-4.738 c 9.418,-17.621 23.488,-32.191 41.516,-42.211 l 1.132,-0.64 h 664.582 323.8 664.58 l 1.13,0.632 c 29.91,16.61 48.81,45.7 53.92,80.489 l 0.97,6.601 -6.61,-0.922 c -62.77,-8.679 -148.15,-18.238 -262.42,-27.027 l 0.38,-4.98 0.39,-4.993 c 114.44,8.801 200.02,18.383 263.02,27.102 l -0.68,4.949 -4.95,0.731 c -4.78,-32.129 -21.8,-58.11 -48.88,-73.211 l 2.43,-4.371 v 5 h -663.28 -323.8 -663.285 v -5 l 2.434,4.371 c -16.359,9.121 -28.996,22.199 -37.559,38.199 l -4.41,-2.359 2.035,-4.571 c 64.141,28.621 194.399,58.949 456.085,58.922 431.53,0.02 634.58,-54.812 888.48,-54.851 42.31,0 86,1.531 132.36,5.089 l -0.39,4.993" /><path
         id="path318"
         style="fill:#17282f;fill-opacity:1;fill-rule:nonzero;stroke:none"
         d="m 3083.81,366.5 c 0,5.469 -0.35,10.852 -0.7,16.23 -56.96,21.059 -129.66,32.5 -178.41,-16.23 -41.91,-41.898 -107.85,-64.168 -166.77,-76.059 26.04,-78.089 90.8,-133.511 166.77,-133.511 98.92,0 179.11,93.82 179.11,209.57" /><path
         id="path320"
         style="fill:#17282f;fill-opacity:1;fill-rule:nonzero;stroke:none"
         d="m 3083.81,366.5 h 5 c 0,5.691 -0.36,11.18 -0.71,16.551 l -0.21,3.238 -3.05,1.133 c -27.85,10.289 -59.5,18.387 -90.73,18.398 -33.44,0.032 -66.64,-9.461 -92.95,-35.789 -40.62,-40.711 -105.75,-62.941 -164.22,-74.691 l -5.54,-1.121 1.79,-5.36 c 13.3,-39.879 36.5,-74.058 66.24,-98.328 29.72,-24.261 66.05,-38.601 105.27,-38.601 51.08,0 97.25,24.261 130.45,63.129 33.22,38.882 53.65,92.41 53.66,151.441 h -5 -5 c 0,-56.719 -19.66,-107.969 -51.26,-144.941 -31.63,-36.977 -75.01,-59.618 -122.85,-59.629 -36.76,0.011 -70.79,13.379 -98.95,36.351 -28.14,22.957 -50.34,55.539 -63.08,93.739 l -4.74,-1.579 0.99,-4.902 c 59.38,12.02 126.12,34.34 169.31,77.422 24.14,24.098 54.21,32.82 85.88,32.859 29.49,0.012 60.14,-7.738 87.27,-17.781 l 1.73,4.691 -4.99,-0.332 c 0.35,-5.367 0.69,-10.636 0.69,-15.898 h 5" /><path
         id="path322"
         style="fill:#17282f;fill-opacity:1;fill-rule:nonzero;stroke:none"
         d="m 5232.13,346.262 c -71.06,46.058 -174.81,44.797 -239.19,-19.582 -33.39,-33.391 -69.94,-45.559 -101.38,-48.348 28.48,-71.633 90.36,-121.402 162.33,-121.402 93.08,0 169.53,83.09 178.24,189.332" /><path
         id="path324"
         style="fill:#17282f;fill-opacity:1;fill-rule:nonzero;stroke:none"
         d="m 5232.13,346.262 2.72,4.199 c -33.02,21.391 -72.77,32.789 -112.58,32.789 -48.16,0.012 -96.57,-16.738 -132.87,-53.031 -32.52,-32.5 -67.76,-44.168 -98.28,-46.91 l -6.68,-0.59 2.48,-6.239 c 29.04,-73.14 92.57,-124.519 166.97,-124.55 48.06,0 91.78,21.492 124.41,56.41 32.65,34.93 54.36,83.308 58.81,137.512 l 0.25,2.98 -2.51,1.629 -2.72,-4.199 -4.98,0.41 c -4.27,-52.043 -25.13,-98.32 -56.15,-131.5 -31.05,-33.18 -72.09,-53.231 -117.11,-53.242 -69.54,-0.02 -129.77,48.129 -157.68,118.25 l -4.65,-1.848 0.44,-4.98 c 32.36,2.847 70.22,15.507 104.47,49.796 34.21,34.192 79.9,50.094 125.8,50.102 37.91,0.012 75.85,-10.898 107.14,-31.18 l 2.72,4.192 -4.98,0.41 4.98,-0.41" /></g></g></svg>